<svg xmlns="http://www.w3.org/2000/svg" viewBox="0 0 500 500"><circle fill="#FFF" stroke="#A10000" stroke-width="16" stroke-miterlimit="10" cx="252" cy="250" r="241.5"/><path fill="#BF1E1E" d="M168.3 294l33.5-33.5c.1.3.3.7.5.9l21 21c.5.5 1.1.7 1.7.7h49.7c.7 0 1.2-.1 1.6-.7l16.4-16.4.7-.7c-.3-.4-.5-.7-.8-.8l-16.2-16.2c-.5-.5-.9-.7-1.7-.7H227c-7 0-12.8-2.4-17.7-7.3l-34.9-34.9c-3.6-3.6-5.9-7.8-6.9-12.8-.3-1.5-.3-2.9-.3-4.4 0-4.6-.1-9.1.1-13.7.1-2.6 1.1-5.2 2.1-7.5 1.2-2.5 2.9-4.8 4.9-6.9l35.3-35.3c3.3-3.3 7.3-5.5 11.9-6.6 1.7-.4 3.4-.4 5.2-.4h57.8c4.5 0 8.7.9 12.5 3.4 1.5.9 3 2 4.2 3.2 9.9 9.8 19.8 19.7 29.7 29.6l.1.1-33.1 33.1c-.1-.1-.4-.3-.7-.5l-21-21c-.5-.5-.9-.7-1.6-.7h-37.9c-.7 0-1.2.1-1.6.7l-17 17c.3.3.4.5.7.7 5.4 5.4 11 11 16.5 16.4.4.4 1.1.7 1.5.7h47.7c6.9 0 12.8 2.4 17.7 7.3l34.6 34.6c2.8 2.8 5 5.8 6.1 9.6.5 2 1.1 4 1.2 6.1.3 4.2.3 8.5.1 12.7-.1 6.5-2.2 12.3-7 16.9l-35.4 35.4c-3.7 3.7-8.3 6.1-13.5 6.7-1.2.1-2.2.3-3.4.3H215c-6.7 0-12.4-2.4-17.2-7.1l-28.5-28.5c-.5-.2-.8-.3-1-.5z"/><path d="M222.6 393.5c0 7.8-5.8 12.3-13.3 12.3h-9.6c-2 0-3.5-1.6-3.5-3.5V370c0-2 1.6-3.5 3.5-3.5h8.3c6.3 0 11 4.4 11 10.8 0 2-.5 3.9-1.5 5.5-.2.3-.1.7.2 1 3.3 2.1 4.9 5.5 4.9 9.7zM208 381.2c.7 0 4.1-.3 4.1-4s-3.5-3.9-4.1-3.9h-2.9c-1.2 0-2.1 1-2.1 2.1v3.6c0 1.2 1 2.1 2.1 2.1h2.9zm-5 15.3c0 1.2 1 2.1 2.1 2.1h4.2c1.9 0 6.4-.5 6.4-5.4s-4.5-5.4-6.4-5.4h-4.2c-1.2 0-2.1 1-2.1 2.1v6.6zM254.8 370c0-1.9 1.6-3.5 3.5-3.5s3.5 1.5 3.5 3.4v21.4c0 8-6.4 14.4-14.4 14.4h-2c-8 0-14.4-6.4-14.4-14.4v-21.4c0-1.9 1.6-3.5 3.5-3.5s3.5 1.5 3.5 3.4v21.4c0 4.1 3.4 7.5 7.5 7.5h2c4.1 0 7.5-3.4 7.5-7.5l-.2-21.2zM284.4 380.7c.2.2.4.3.6.3.2 0 .5-.1.6-.3l7.7-12.6c.6-1 1.7-1.6 2.9-1.6 2.7 0 4.3 3 2.9 5.3l-10.4 17c-.2.3-.3.7-.3 1.1v12.4c0 1.9-1.5 3.4-3.4 3.4s-3.4-1.6-3.4-3.5v-12.4c0-.4-.1-.8-.3-1.1l-10.4-17c-1.4-2.3.2-5.3 2.9-5.3 1.2 0 2.3.6 2.9 1.6l7.7 12.7z"/></svg>