<?xml version="1.0" encoding="utf-8"?>
<!-- Generator: Adobe Illustrator 24.1.2, SVG Export Plug-In . SVG Version: 6.00 Build 0)  -->
<svg version="1.1" id="Слой_1" xmlns="http://www.w3.org/2000/svg" xmlns:xlink="http://www.w3.org/1999/xlink" x="0px" y="0px"
	 viewBox="0 0 500 500" enable-background="new 0 0 500 500" xml:space="preserve">
<circle fill="#FFFFFF" stroke="#A10000" stroke-width="16" stroke-miterlimit="10" cx="252" cy="250" r="241.5"/>
<g>
	<g>
		<path fill="#FEFEFE" d="M403.8,273.4c0,42.8,0,85.6,0,128.4c-101.2,0-202.4,0-303.6,0c0-101.2,0-202.4,0-303.6
			c101.2,0,202.4,0,303.6,0c0,52.5,0,104.9,0,157.4c-0.2-0.6-0.5-1.2-0.6-1.8c-1.2-5.4-1.9-10.9-3.5-16.1c-7.1-22.1-20.9-39-41-50.5
			c-13.3-7.6-27.7-11.3-43.1-11.3c-7.1,0.8-14.2,1.5-21.4,2.3c0-5.4,0.1-10.8,0-16.3c-0.1-7.9-5.6-15-12.7-15.1
			c-25.3-0.3-50.7-0.1-76-0.1c-24.8,0-49.6-0.1-74.4,0c-7.3,0-13.4,6.3-13.7,13.7c-0.2,3.7,0,7.5,0,11.2c0,4.3-0.2,8.6,0,12.9
			c0.2,5.6,4.4,10.7,10,12.5c0,0.3-0.1,0.7-0.1,1c-4.1,0-8.3-0.2-12.4,0c-7.8,0.4-13.6,6.3-14,14.1c-0.2,3.6,0,7.3,0,10.9
			c0,4-0.1,8.1-0.1,12.1c0.1,6.9,5.7,13.2,12.5,13.8c4.3,0.4,8.7,0.3,13,0.4c-0.7,0.6-1.4,1.3-2.2,1.8c-4,2.7-6.4,6.4-6.7,11.2
			c-0.2,3.8,0,7.7,0,11.5c0,3.9-0.1,7.9-0.1,11.8c0.1,5.5,2.7,9.5,7.3,12.4c0.7,0.5,1.4,0.9,2.7,1.7c-4.6,0-8.5-0.1-12.4,0
			c-7.9,0.4-13.8,6.4-14.1,14.3c-0.1,3.7,0,7.5,0,11.2c0,4.4-0.4,8.9,0.1,13.3c0.8,7.4,7.5,12.5,15.8,12.6c7.8,0.1,15.6,0,23.4,0
			c40.2,0,80.5,0,120.7,0c6.1,0,11.4-1.8,14.6-7.6c0.9,0.2,1.9,0.3,2.8,0.7c11.9,5.4,24.3,8.3,37.4,8.1c3.6-0.2,7.3-0.2,10.9-0.6
			c15-1.7,28.7-7.2,40.9-16.1c16.6-12.2,27.7-28.2,33.3-48C402,283.1,402.8,278.2,403.8,273.4z"/>
		<path fill="#E2C12A" d="M315.6,175.9c15.3,0,29.8,3.7,43.1,11.3c20.2,11.5,33.9,28.4,41,50.5c1.7,5.2,2.4,10.7,3.5,16.1
			c0.1,0.6,0.4,1.2,0.6,1.8c0,5.9,0,11.8,0,17.8c-1,4.8-1.8,9.8-3.2,14.5c-5.6,19.8-16.7,35.9-33.3,48
			c-12.2,8.9-25.8,14.4-40.9,16.1c-3.6,0.4-7.2,0.4-10.9,0.6c0-6.3,0-12.6,0-18.9c3.9-0.2,7.9-0.1,11.7-0.8
			c14.5-2.7,27.1-9,37.4-19.7c15.6-16.1,22.1-35.3,19.5-57.6c-2.1-17.2-9.7-31.4-22.5-43.1c-13.1-11.9-28.6-17.4-46.1-18
			C315.6,188.4,315.6,182.2,315.6,175.9z"/>
		<path fill="#E2C029" d="M100.9,325.5c0-3.7-0.2-7.5,0-11.2c0.3-7.9,6.2-14,14.1-14.3c3.9-0.2,7.8,0,12.4,0c-1.3-0.8-2-1.2-2.7-1.7
			c-4.5-2.9-7.2-6.9-7.3-12.4c0-3.9,0-7.9,0.1-11.8c0.2,0.5,0.5,1,0.7,1.6c2.2,6.2,7.8,10.2,14.4,10.2c23.4,0,46.7,0,70.1,0.1
			c2.4,0,3-0.8,3-3c-0.1-11,0-22.1,0-33.1c7.5,0,15,0,22.5,0c-0.2,2.9-0.6,5.9-0.6,8.8c0,5.9-0.6,12,0.5,17.8
			c1.5,8.2,4.4,16.2,6.6,24.3c-14.2,0-28.4,0-42.6,0c-2.3,0-3,0.6-3,3c0.1,10,0,19.9,0.1,29.9c0,2.6-0.6,3.4-3.3,3.3
			c-23.2-0.1-46.4,0-69.5-0.1c-2.3,0-4.6-0.8-6.8-1.6C104.8,333.5,102.9,329.4,100.9,325.5z"/>
		<path fill="#E2C029" d="M205.6,146.8c25.3,0,50.7-0.2,76,0.1c7,0.1,12.5,7.2,12.7,15.1c0.1,5.4,0,10.8,0,16.3
			c-1.8,0.6-3.7,1.3-5.5,1.8c-12.1,3.8-22.7,10.1-32.3,18.2c-17,0-34,0-50.9,0c-1.1-0.2-2.2-0.5-3.4-0.5c-23.1,0-46.1,0-69.2-0.1
			c-1.8,0-3.7-0.4-5.5-0.5c-5.6-1.8-9.8-6.9-10-12.5c-0.1-4.3,0-8.6,0-12.9c0.2,0.4,0.5,0.8,0.6,1.3c2.5,7,7.5,10.5,15,10.5
			c23.2,0,46.4,0,69.5,0c2.3,0,3-0.6,3-3C205.5,169.2,205.6,158,205.6,146.8z"/>
		<path fill="#F9D42D" d="M256.4,198.2c9.6-8.1,20.2-14.4,32.3-18.2c1.9-0.6,3.7-1.2,5.5-1.8c7.1-0.8,14.2-1.5,21.4-2.3
			c0,6.2,0,12.5,0,18.7c-7.7,0-15.3,1.1-22.5,3.7c-11.4,4-21.2,10.4-29.4,19.4c-7.3,8.1-12.5,17.4-15.4,27.8
			c-2.9,10.2-3.3,20.6-1.4,31.2c2.9,16.7,11.1,30.3,23.7,41c12.8,10.9,28,16.5,45.1,16c0,6.3,0,12.6,0,18.9
			c-13.1,0.2-25.5-2.6-37.4-8.1c-0.9-0.4-1.8-0.5-2.8-0.7c-0.8-0.6-1.5-1.2-2.3-1.8c-6.4-4.7-13.2-8.9-19.1-14.2
			c-8.5-7.5-14.7-17.1-19.6-27.3c-2.3-8.1-5.1-16.1-6.6-24.3c-1.1-5.8-0.5-11.9-0.5-17.8c0-2.9,0.4-5.9,0.6-8.8
			c0.2-0.6,0.5-1.1,0.6-1.7c2-12.5,6.9-23.9,14.3-34.1C246.9,208.4,251.9,203.5,256.4,198.2z"/>
		<path fill="#D5B41B" d="M234.5,300.6c4.9,10.3,11,19.8,19.6,27.3c5.9,5.2,12.7,9.5,19.1,14.2c0.8,0.6,1.5,1.2,2.3,1.8
			c-3.2,5.8-8.4,7.6-14.6,7.6c-40.2,0-80.5,0-120.7,0c-7.8,0-15.6,0.1-23.4,0c-8.3-0.1-15-5.2-15.8-12.6c-0.5-4.4-0.1-8.9-0.1-13.3
			c2,3.9,3.9,8,8.6,9.6c2.2,0.7,4.5,1.6,6.8,1.6c23.2,0.1,46.4,0,69.5,0.1c2.7,0,3.3-0.8,3.3-3.3c-0.1-10,0-19.9-0.1-29.9
			c0-2.4,0.7-3,3-3C206.1,300.6,220.3,300.6,234.5,300.6z"/>
		<path fill="#D5B41A" d="M256.4,198.2c-4.5,5.2-9.5,10.2-13.6,15.8c-7.4,10.2-12.3,21.5-14.3,34.1c-0.1,0.6-0.4,1.1-0.6,1.7
			c-7.5,0-15,0-22.5,0c-24.3,0-48.6,0-72.9,0c-2.1,0-4.2-0.1-6.3-0.2c-4.3-0.1-8.7,0-13-0.4c-6.9-0.7-12.4-7-12.5-13.8
			c-0.1-4,0-8.1,0.1-12.1c3.2,8.6,9.4,12,18.5,11.9c21.9-0.3,43.7-0.1,65.6-0.1c4.1,0,4.1,0,4.1-4.2c0-10.8,0-21.7,0-32.5
			c5.5,0,11,0,16.5,0C222.5,198.2,239.4,198.2,256.4,198.2z"/>
		<path fill="#F9E146" d="M205.6,146.8c0,11.2-0.1,22.5,0,33.7c0,2.4-0.7,3-3,3c-23.2-0.1-46.4,0-69.5,0c-7.5,0-12.5-3.5-15-10.5
			c-0.2-0.4-0.4-0.9-0.6-1.3c0-3.7-0.2-7.5,0-11.2c0.4-7.4,6.5-13.6,13.7-13.7C156,146.6,180.8,146.7,205.6,146.8z"/>
		<path fill="#E2C029" d="M189,198.2c0,10.8,0,21.7,0,32.5c0,4.2,0,4.2-4.1,4.2c-21.9,0-43.7-0.2-65.6,0.1
			c-9.1,0.1-15.3-3.3-18.5-11.9c0-3.6-0.2-7.3,0-10.9c0.3-7.8,6.2-13.7,14-14.1c4.1-0.2,8.3,0,12.4,0c0.9,0,1.8,0.1,2.7,0.1
			C149.6,198.2,169.3,198.2,189,198.2z"/>
		<path fill="#F9E146" d="M126.3,249.5c2.1,0.1,4.2,0.2,6.3,0.2c24.3,0,48.6,0,72.9,0c0,11-0.1,22.1,0,33.1c0,2.3-0.5,3-3,3
			c-23.4-0.1-46.7,0-70.1-0.1c-6.6,0-12.2-4.1-14.4-10.2c-0.2-0.5-0.5-1-0.7-1.6c0-3.8-0.2-7.7,0-11.5c0.3-4.8,2.7-8.5,6.7-11.2
			C124.9,250.8,125.6,250.1,126.3,249.5z"/>
		<path fill="#EBCF4C" d="M189,198.2c-19.7,0-39.4,0-59.1,0c-0.9,0-1.8-0.1-2.7-0.1c0-0.3,0.1-0.7,0.1-1c1.8,0.2,3.7,0.5,5.5,0.5
			c23.1,0,46.1,0,69.2,0.1c1.1,0,2.3,0.3,3.4,0.5C200,198.2,194.5,198.2,189,198.2z"/>
		<path fill="#F9E146" d="M315.6,333.8c-17.1,0.5-32.2-5.2-45.1-16c-12.7-10.7-20.8-24.3-23.7-41c-1.8-10.6-1.4-20.9,1.4-31.2
			c2.9-10.5,8.1-19.7,15.4-27.8c8.2-9.1,18-15.4,29.4-19.4c7.3-2.5,14.8-3.6,22.5-3.7c17.5,0.5,33,6.1,46.1,18
			c12.9,11.6,20.5,25.9,22.5,43.1c2.7,22.3-3.9,41.5-19.5,57.6c-10.3,10.7-23,17-37.4,19.7C323.6,333.7,319.6,333.5,315.6,333.8z
			 M311.9,303.1c0.5,4.4,1.5,5.8,4.5,5.7c3.1-0.1,4.4-2,4.6-5c0-0.7,1.1-1.7,1.8-1.9c11.8-2.6,18.9-9.5,20.2-21.8
			c0.7-6.4-0.8-12.3-5.1-17.2c-3.9-4.5-9-6.8-14.3-9.1c-1-0.4-2.6-1.3-2.6-2c-0.2-5.2-0.1-10.4-0.1-16.4c3.8,1.5,7,2.6,10.1,4
			c2.2,1,4.1,1,6.2-0.2c5.2-3.1,5.3-11.9-0.1-14.4c-3.7-1.7-8-2.5-12.1-3.4c-2-0.5-4-0.1-4.3-3.1c-0.3-2.5-2.6-3.5-4.9-3.3
			c-2.2,0.2-4,1.4-3.7,4.1c0.2,2.1-1.1,2.3-2.6,2.8c-3.2,1-6.4,1.9-9.4,3.4c-12,6-14.9,24.3-5,33.4c4.3,4,9.5,6.2,14.7,8.5
			c0.8,0.4,2.1,1.1,2.1,1.7c0.2,5.8,0.1,11.5,0.1,17.5c-4.9-0.7-8.3-3.6-11.9-5.7c-1.4-0.8-3-1.6-4.5-1.9c-3.4-0.6-5.5,1.5-7,4.3
			c-2.1,4-1.8,7.5,0.7,10.5c3.9,4.5,9,6.9,14.7,8.2C306.6,302.3,309.2,302.7,311.9,303.1z"/>
		<path fill="#D5B41A" d="M311.9,303.1c-2.7-0.5-5.3-0.8-7.9-1.4c-5.7-1.3-10.8-3.7-14.7-8.2c-2.6-2.9-2.8-6.4-0.7-10.5
			c1.5-2.8,3.5-4.9,7-4.3c1.6,0.3,3.1,1.1,4.5,1.9c3.7,2.2,7,5.1,11.9,5.7c0-6,0.1-11.7-0.1-17.5c0-0.6-1.3-1.3-2.1-1.7
			c-5.2-2.3-10.4-4.5-14.7-8.5c-9.9-9.1-6.9-27.5,5-33.4c3-1.5,6.2-2.4,9.4-3.4c1.5-0.5,2.8-0.7,2.6-2.8c-0.3-2.6,1.6-3.8,3.7-4.1
			c2.3-0.2,4.6,0.7,4.9,3.3c0.3,3,2.3,2.7,4.3,3.1c4.1,0.9,8.3,1.7,12.1,3.4c5.4,2.5,5.3,11.3,0.1,14.4c-2,1.2-4,1.2-6.2,0.2
			c-3.1-1.4-6.3-2.5-10.1-4c0,6.1-0.1,11.3,0.1,16.4c0,0.7,1.6,1.6,2.6,2c5.3,2.2,10.5,4.6,14.3,9.1c4.3,5,5.8,10.8,5.1,17.2
			c-1.3,12.3-8.5,19.2-20.2,21.8c-0.7,0.2-1.8,1.2-1.8,1.9c-0.2,3-1.5,4.9-4.6,5C313.4,308.9,312.3,307.6,311.9,303.1z M319.9,286.2
			c4.2-1,6.6-3.5,6.7-6.7c0.1-3.3-2.7-6.5-6.7-7.6C319.9,276.6,319.9,281.3,319.9,286.2z M313,237c-3.4-0.2-6.6,2.1-6.9,4.7
			c-0.5,3.7,1.9,6.4,6.9,7.8C313,245.2,313,241.1,313,237z"/>
		<path fill="#F8E045" d="M319.9,286.2c0-4.9,0-9.6,0-14.3c4.1,1.1,6.9,4.3,6.7,7.6C326.5,282.7,324.1,285.2,319.9,286.2z"/>
		<path fill="#F8E045" d="M313,237c0,4.1,0,8.3,0,12.4c-5-1.4-7.4-4.1-6.9-7.8C306.5,239,309.7,236.8,313,237z"/>
	</g>
</g>
</svg>
