<svg xmlns="http://www.w3.org/2000/svg" xmlns:xlink="http://www.w3.org/1999/xlink" viewBox="0 0 500 500"><defs><path id="a" d="M0 0h500v500H0z"/></defs><clipPath id="b"><use xlink:href="#a" overflow="visible"/></clipPath><path clip-path="url(#b)" fill="#FFF" d="M493.5 250c0 133.4-108.1 241.5-241.5 241.5S10.5 383.4 10.5 250 118.6 8.5 252 8.5 493.5 116.6 493.5 250"/><circle clip-path="url(#b)" fill="none" stroke="#A10000" stroke-width="9" stroke-miterlimit="10" cx="252" cy="250" r="241.5"/><g><path d="M227.6 360.1c0 7.5-5.6 11.8-12.8 11.8h-9.3c-1.9 0-3.4-1.5-3.4-3.4v-31.1c0-1.9 1.5-3.4 3.4-3.4h8c6 0 10.6 4.3 10.6 10.4 0 1.9-.5 3.8-1.4 5.3-.2.3-.1.7.2.9 3.1 2.2 4.7 5.5 4.7 9.5zm-14.1-11.8c.6 0 4-.3 4-3.8 0-3.6-3.3-3.7-4-3.7h-2.8c-1.1 0-2.1.9-2.1 2.1v3.5c0 1.1.9 2.1 2.1 2.1h2.8zm-4.8 14.8c0 1.1.9 2.1 2.1 2.1h4c1.8 0 6.2-.5 6.2-5.2s-4.3-5.2-6.2-5.2h-4c-1.1 0-2.1.9-2.1 2.1v6.2zM258.6 337.5c0-1.8 1.5-3.3 3.3-3.3s3.3 1.5 3.3 3.3V358c0 7.7-6.2 13.9-13.9 13.9h-1.9c-7.7 0-13.9-6.2-13.9-13.9v-20.6c0-1.8 1.5-3.3 3.3-3.3s3.3 1.5 3.3 3.3V358c0 4 3.2 7.2 7.2 7.2h1.9c4 0 7.2-3.2 7.2-7.2l.2-20.5zM287.1 347.8c.2.2.4.3.6.3.2 0 .5-.1.6-.3l7.5-12.2c.6-1 1.7-1.6 2.8-1.6 2.6 0 4.2 2.9 2.8 5.1l-10 16.4c-.2.3-.3.7-.3 1.1v12c0 1.8-1.5 3.3-3.3 3.3s-3.3-1.5-3.3-3.3v-12c0-.4-.1-.8-.3-1.1l-10-16.4c-1.3-2.2.2-5.1 2.8-5.1 1.1 0 2.2.6 2.8 1.6l7.3 12.2z"/></g><g><path fill="#BF1E1E" d="M186.7 258.6l25.4-25.4c.1.2.2.5.4.7l15.9 15.9c.4.4.8.5 1.3.5h37.6c.5 0 .9-.1 1.2-.5l12.4-12.4.5-.5c-.2-.3-.4-.5-.6-.6L268.5 224c-.4-.4-.7-.5-1.3-.5h-36c-5.3 0-9.7-1.8-13.4-5.5l-26.4-26.4c-2.7-2.7-4.5-5.9-5.2-9.7-.2-1.1-.2-2.2-.2-3.3 0-3.5-.1-6.9.1-10.4.1-2 .8-3.9 1.6-5.7.9-1.9 2.2-3.6 3.7-5.2l26.7-26.7c2.5-2.5 5.5-4.2 9-5 1.3-.3 2.6-.3 3.9-.3h43.8c3.4 0 6.6.7 9.5 2.6 1.1.7 2.3 1.5 3.2 2.4 7.5 7.4 15 14.9 22.5 22.4l.1.1-25.1 25.1c-.1-.1-.3-.2-.5-.4l-15.9-15.9c-.4-.4-.7-.5-1.2-.5h-28.7c-.5 0-.9.1-1.2.5l-12.9 12.9c.2.2.3.4.5.5 4.1 4.1 8.3 8.3 12.5 12.4.3.3.8.5 1.1.5h36.1c5.2 0 9.7 1.8 13.4 5.5l26.2 26.2c2.1 2.1 3.8 4.4 4.6 7.3.4 1.5.8 3 .9 4.6.2 3.2.2 6.4.1 9.6-.1 4.9-1.7 9.3-5.3 12.8l-26.8 26.8c-2.8 2.8-6.3 4.6-10.2 5.1-.9.1-1.7.2-2.6.2h-52.9c-5.1 0-9.4-1.8-13-5.4L187.6 259c-.5-.2-.7-.3-.9-.4z"/></g></svg>