<svg xmlns="http://www.w3.org/2000/svg" viewBox="0 0 480 480"><path d="M258 1h222.97v479.91H1.16V1H226c-6.21.97-12.42 2-18.64 2.9-39.72 5.74-75.48 20.98-107.54 44.99-5.46 4.09-10.63 8.58-15.74 13.1-3.8 3.36-4.18 7.8-1.39 11.08 2.89 3.39 6.95 3.58 11.14.42 1.46-1.1 2.73-2.44 4.15-3.61 62.3-51.21 133.07-67.69 209.58-43 88.45 28.55 139.8 91.52 153.43 183.92 5.82 39.46-.43 77.68-16.1 114.21-38.46 89.62-131.06 143.37-227.81 132.01-67.87-7.97-121.01-41.11-159.06-97.46-30.2-44.73-41.35-94.55-35.15-148.29 3.05-26.42 10.05-51.66 22.95-74.86 7.65-13.75 17.16-26.48 25.92-39.6 3.2-4.79 3.18-9.18-.4-12.02-3.7-2.94-8.04-2.2-11.55 2.68-7.58 10.53-15.74 20.78-22.12 32.02C13.81 161.53 3.34 206.74 6.8 255.17c2.4 33.59 11.45 65.17 27.47 94.66 46.06 84.8 138.69 133.62 234.32 122.37 34.44-4.05 66.55-14.6 96.02-32.76 85.1-52.47 127.62-149.01 109.17-247.3-17.4-92.76-92.81-168.57-185.35-186.23C278.34 3.98 268.15 2.62 258 1zM83.73 250.14c-.18-41.91 6.53-66.87 19.67-89.32 30.53-52.17 76.21-80.21 136.95-81.77 38.82-1 73.51 11.68 103.04 36.74 36.3 30.8 55.57 70.27 56.83 118.18.83 31.66-6.74 61.14-24.15 87.61-6.81 10.36-15.35 19.61-23.36 29.16-4.47 5.33-5.31 9.73-1.67 13.09 3.68 3.4 7.69 2.76 12.47-2.33 4.78-5.1 9.64-10.17 13.98-15.63 29.36-36.96 42.02-79.17 37.23-125.99-4.48-43.75-22.84-81.37-55.97-110.57-51.59-45.47-110.83-57.25-175.76-34.96-43.66 14.99-75.54 44.63-96.37 85.84-13.65 26.99-19.3 55.72-17.91 85.98 1.22 26.45 7.85 51.47 20.79 74.34 27.11 47.91 67.74 77.87 122.19 87.98 35.74 6.64 70.26 1.93 103.25-13.28 6.78-3.13 13.26-6.97 19.69-10.8 4.3-2.56 5.31-6.53 3.23-10.2-2.16-3.8-6.33-4.88-10.81-2.67-1.79.88-3.46 1.99-5.2 2.98-45.75 25.85-93.73 29.91-141.53 8.81-62.58-27.62-93.88-77.86-96.59-133.19z" fill="none"/><path d="M258 1c10.15 1.62 20.34 2.98 30.43 4.91 92.54 17.66 167.94 93.47 185.35 186.23 18.44 98.28-24.07 194.82-109.17 247.3-29.47 18.17-61.58 28.71-96.02 32.76-95.64 11.25-188.27-37.58-234.32-122.37-16.02-29.5-25.07-61.08-27.47-94.66-3.46-48.43 7.02-93.63 30.88-135.67 6.38-11.24 14.54-21.49 22.12-32.02 3.51-4.87 7.85-5.61 11.55-2.68 3.58 2.84 3.6 7.23.4 12.02-8.77 13.13-18.28 25.85-25.92 39.6-12.9 23.2-19.9 48.44-22.95 74.86-6.2 53.73 4.95 103.56 35.15 148.29 38.05 56.35 91.18 89.49 159.06 97.46 96.75 11.37 189.35-42.39 227.81-132.01 15.68-36.53 21.93-74.75 16.1-114.21-13.65-92.4-65-155.37-153.45-183.92-76.51-24.69-147.28-8.21-209.58 43-1.41 1.16-2.69 2.51-4.15 3.61-4.19 3.16-8.25 2.96-11.14-.42-2.8-3.28-2.41-7.72 1.39-11.08 5.11-4.52 10.28-9.02 15.74-13.1 32.06-24 67.82-39.24 107.54-44.99C213.58 3 219.79 1.97 226 1h32z"/><path d="M83.73 250.14c2.71 55.32 34.01 105.56 96.6 133.19 47.8 21.1 95.77 17.04 141.53-8.81 1.74-.98 3.41-2.09 5.2-2.98 4.47-2.21 8.65-1.13 10.81 2.67 2.08 3.67 1.07 7.63-3.23 10.2-6.43 3.83-12.9 7.67-19.69 10.8-33 15.2-67.51 19.91-103.25 13.28-54.45-10.11-95.08-40.07-122.19-87.98-12.94-22.87-19.57-47.89-20.79-74.34-1.39-30.26 4.26-58.99 17.91-85.98 20.83-41.2 52.71-70.84 96.37-85.84 64.93-22.29 124.17-10.51 175.76 34.96 33.13 29.2 51.49 66.82 55.97 110.57 4.79 46.81-7.88 89.03-37.23 125.99-4.34 5.47-9.2 10.53-13.98 15.63-4.78 5.1-8.78 5.74-12.47 2.33-3.64-3.37-2.8-7.76 1.67-13.09 8.01-9.54 16.55-18.8 23.36-29.16 17.4-26.48 24.98-55.95 24.15-87.61-1.26-47.9-20.53-87.38-56.83-118.18-29.53-25.05-64.22-37.74-103.04-36.74-60.74 1.56-106.42 29.61-136.95 81.77-13.16 22.45-19.87 47.41-19.68 89.32z"/></svg>