<?xml version="1.0" encoding="utf-8"?>
<!-- Generator: Adobe Illustrator 19.1.0, SVG Export Plug-In . SVG Version: 6.00 Build 0)  -->
<svg version="1.1" id="Layer_1" xmlns="http://www.w3.org/2000/svg" xmlns:xlink="http://www.w3.org/1999/xlink" x="0px" y="0px"
	 viewBox="0 0 64 64" enable-background="new 0 0 64 64" xml:space="preserve">
<g id="US-coin">
	<path d="M33.0004005,27.4897995v-11.846199c2.209198,0.1276999,3.8346977,0.6910992,4.7324066,1.6488991
		c0.8134918,0.8691006,0.7743912,1.7933998,0.771492,1.8554001c-0.0458984,0.5445004,0.3555107,1.0263996,0.9004021,1.078701
		c0.5517998,0.0438995,1.0381088-0.3501015,1.0907974-0.9004002c0.017601-0.1822014,0.1309013-1.8233013-1.25-3.3428001
		c-1.2817993-1.4107008-3.3841972-2.1916008-6.2450981-2.3376007V10c0-0.5522003-0.4473-1-1-1s-1,0.4477997-1,1v3.6475
		c-7.8845921,0.3302002-9,4.5334997-9,8.6601c0,4.5676003,2.9512005,6.9036999,9,7.1313v13.3871002
		c-2.9852009-0.1097984-7-0.7792015-7-3.5955009c0-0.5527992-0.4473-1-1-1s-1,0.4472008-1,1
		c0,2.0119019,1.2152996,5.3241005,9,5.5893021V50c0,0.5527,0.4473,1,1,1s1-0.4473,1-1v-5.1848984
		c5.8116989-0.3094025,9-3.3544998,9-8.6618004C42.0004005,30.6847,38.9703979,27.7770004,33.0004005,27.4897995z
		 M31.0004005,27.4375c-6.1312008-0.2409992-7-2.7087994-7-5.1299c0-3.3582001,0.5688992-6.3823996,7-6.6645002V27.4375z
		 M33.0004005,42.8162003V29.4857006c3.4489975,0.1543999,7,1.2619991,7,6.6676006
		C40.0004005,40.3054008,37.6459999,42.5429993,33.0004005,42.8162003z"/>
	<path d="M51.581501,45.0996017c-0.4961014-0.3203011-1.1592026-0.1777-1.4815025,0.3192978
		c-4.3554993,6.75-9.1483994,7.5059013-9.2372971,7.5186005c-0.5840034,0.0751991-0.9980011,0.6083984-0.9258003,1.1934013
		c0.0663986,0.5429001,0.5282974,0.9403992,1.0625,0.9403992c0.0429993,0,0.0878983-0.0019989,0.131897-0.0078011
		c0.235302-0.0283012,5.8095093-0.7958984,10.7695122-8.482399C52.2220993,46.0839996,52.0784988,45.4208984,51.581501,45.0996017z"
		/>
	<path d="M32,0c-17.6730995,0-32,14.3268995-32,32s14.3268995,32,32,32c17.6731987,0,32-14.3269005,32-32S49.6731987,0,32,0z M32,62
		c-16.5419998,0-30-13.457901-30-30S15.4580002,2,32,2c16.542099,0,30,13.4579,30,30S48.542099,62,32,62z"/>
</g>
<g>
</g>
<g>
</g>
<g>
</g>
<g>
</g>
<g>
</g>
<g>
</g>
<g>
</g>
<g>
</g>
<g>
</g>
<g>
</g>
<g>
</g>
<g>
</g>
<g>
</g>
<g>
</g>
<g>
</g>
</svg>
