<?xml version="1.0" encoding="iso-8859-1"?>
<!-- Generator: Adobe Illustrator 19.0.0, SVG Export Plug-In . SVG Version: 6.00 Build 0)  -->
<svg version="1.1" id="Layer_1" xmlns="http://www.w3.org/2000/svg" xmlns:xlink="http://www.w3.org/1999/xlink" x="0px" y="0px"
	 viewBox="0 0 512 512" style="enable-background:new 0 0 512 512;" xml:space="preserve">
<circle style="fill:#324A5E;" cx="256" cy="256" r="256"/>
<path style="fill:#2B3B4E;" d="M272.236,511.472c129.586-8.113,233.031-112.614,239.445-242.652L393.53,150.669l-135.228,91.539
	L105.543,344.781L272.236,511.472z"/>
<path style="fill:#F9B54C;" d="M381.702,202.559H244.077c-9.125,0-16.52-7.397-16.52-16.522v-23.845
	c0-9.125,7.397-16.522,16.52-16.522h137.625c9.125,0,16.52,7.397,16.52,16.522v23.847
	C398.222,195.162,390.825,202.559,381.702,202.559z"/>
<path style="fill:#FFD15D;" d="M381.702,259.448H244.077c-9.125,0-16.52-7.397-16.52-16.52v-23.847
	c0-9.125,7.397-16.522,16.52-16.522h137.625c9.125,0,16.52,7.397,16.52,16.522v23.847
	C398.222,252.051,390.825,259.448,381.702,259.448z"/>
<path style="fill:#F9B54C;" d="M381.702,316.337H244.077c-9.125,0-16.52-7.397-16.52-16.52V275.97c0-9.125,7.397-16.52,16.52-16.52
	h137.625c9.125,0,16.52,7.397,16.52,16.52v23.847C398.222,308.939,390.825,316.337,381.702,316.337z"/>
<path style="fill:#FFD15D;" d="M381.702,373.226H244.077c-9.125,0-16.52-7.397-16.52-16.52v-23.847c0-9.125,7.397-16.52,16.52-16.52
	h137.625c9.125,0,16.52,7.397,16.52,16.52v23.847C398.222,365.828,390.825,373.226,381.702,373.226z"/>
<path style="fill:#F4A200;" d="M381.702,145.67h-69.385v56.889h69.385c9.125,0,16.52-7.397,16.52-16.52V162.19
	C398.222,153.067,390.825,145.67,381.702,145.67z"/>
<path style="fill:#F9B54C;" d="M381.702,202.559h-69.385v56.889h69.385c9.125,0,16.52-7.397,16.52-16.52v-23.847
	C398.222,209.956,390.825,202.559,381.702,202.559z"/>
<path style="fill:#F4A200;" d="M381.702,259.448h-69.385v56.889h69.385c9.125,0,16.52-7.397,16.52-16.52V275.97
	C398.222,266.845,390.825,259.448,381.702,259.448z"/>
<path style="fill:#F9B54C;" d="M381.702,316.337h-69.385v56.889h69.385c9.125,0,16.52-7.397,16.52-16.52v-23.847
	C398.222,323.734,390.825,316.337,381.702,316.337z"/>
<circle style="fill:#FFD15D;" cx="177.562" cy="279.273" r="78.438"/>
<g>
	<path style="fill:#F9B54C;" d="M177.562,200.835c-0.193,0-0.381,0.014-0.574,0.014v156.846c0.191,0.002,0.381,0.014,0.574,0.014
		c43.32,0,78.438-35.118,78.438-78.438S220.882,200.835,177.562,200.835z"/>
	<path style="fill:#F9B54C;" d="M177.562,376.673c-53.707,0-97.401-43.694-97.401-97.401s43.694-97.401,97.401-97.401
		s97.401,43.694,97.401,97.401S231.269,376.673,177.562,376.673z M177.562,219.798c-32.794,0-59.475,26.681-59.475,59.475
		c0,32.794,26.681,59.475,59.475,59.475s59.475-26.681,59.475-59.475C237.037,246.479,210.356,219.798,177.562,219.798z"/>
</g>
<path style="fill:#F4A200;" d="M177.562,181.872c-0.193,0-0.381,0.014-0.574,0.014v37.926c0.191-0.002,0.381-0.014,0.574-0.014
	c32.794,0,59.475,26.681,59.475,59.475c0,32.794-26.681,59.475-59.475,59.475c-0.193,0-0.381-0.012-0.574-0.014v37.926
	c0.191,0.002,0.381,0.014,0.574,0.014c53.707,0,97.401-43.694,97.401-97.401S231.269,181.872,177.562,181.872z"/>
<g>
</g>
<g>
</g>
<g>
</g>
<g>
</g>
<g>
</g>
<g>
</g>
<g>
</g>
<g>
</g>
<g>
</g>
<g>
</g>
<g>
</g>
<g>
</g>
<g>
</g>
<g>
</g>
<g>
</g>
</svg>
