<svg xmlns="http://www.w3.org/2000/svg" xmlns:xlink="http://www.w3.org/1999/xlink" viewBox="0 0 500 500"><defs><path id="a" d="M0 0h500v500H0z"/></defs><clipPath id="b"><use xlink:href="#a" overflow="visible"/></clipPath><path clip-path="url(#b)" fill="#FFF" d="M493.5 250c0 133.4-108.1 241.5-241.5 241.5S10.5 383.4 10.5 250 118.6 8.5 252 8.5 493.5 116.6 493.5 250"/><g><defs><path id="c" d="M0 0h500v500H0z"/></defs><clipPath id="d"><use xlink:href="#c" overflow="visible"/></clipPath><circle clip-path="url(#d)" fill="none" stroke="#A10000" stroke-width="9" stroke-miterlimit="10" cx="252" cy="250" r="241.5"/></g><g fill="#A10000"><path d="M141.6 169.1v-8.8c.1-.4.2-.7.2-1.1l.3-14.2c0-1.5.1-3 .4-4.4 2.4-8.7 9.8-14.4 18.8-14.5 18-.2 36-.3 54.1-.5 7-.1 14 0 21-.1h33.3c23 .2 46 .3 69.1.4 4.9 0 9 1.8 12.5 5 4.1 3.7 6.5 8.4 6.5 14.1 0 .9.2 1.8.3 2.6v13.7c-.1.4-.2.7-.2 1.1v28.5c0 .3.1.5.2.8v38.4c-.1.3-.2.5-.2.8v10.5c0 .3.1.5.2.8v14.6c-.1.2-.2.4-.2.6-.1 1.7-.2 3.3-.2 5 0 4.4-1.7 8.2-4.6 11.5-3.2 3.5-7 6.3-11.9 6.6-3.1.2-6.2.4-9.4.4-26 .1-51.9.1-77.9.1-.8 0-1.3.2-1.9.8-11.7 11.7-23.4 23.4-35.2 35.1-3.5 3.5-7.3 6.9-10.9 10.3-2.7 2.5-8.8.3-9.4-3.4-.2-1.6-.4-3.3-.4-4.9-.1-12.2-.1-24.4-.2-36.5V281h-1.3c-11.1-.1-22.2-.1-33.3-.2-5.8-.1-10.6-2.6-14.3-6.9-3-3.3-4.7-7.2-4.7-11.8 0-4.8-.2-9.6-.3-14.5 0-.4-.1-.7-.2-1.1v-19c.1-.3.2-.7.2-1v-7.8-8.8c0-.3-.1-.6-.2-.9v-13.5c.1-.3.2-.6.2-.9V181c0-.3-.1-.6-.2-.9v-4.9c.1-1.8.2-3.7.2-5.5-.1-.2-.3-.4-.4-.6zm108.3 30.7c11.2 0 22.4.1 33.7 0 14.1 0 28.1 0 42.2-.1.4 0 .8 0 1.1-.2 3.2-1.9 4.3-4.4 3.7-8.1-.4-2.5-3.1-4.8-5.6-4.8-11.3 0-22.6-.1-33.9-.1-31.3 0-62.5-.1-93.8 0-7.4 0-14.9.2-22.3.5-1.3 0-3 .3-3.9 1.1-2 1.7-2.7 4.1-2.1 6.7.7 2.9 2.8 4.7 5.8 4.8 1.5.1 3 .1 4.5.1 23.6.1 47.1.1 70.6.1zm.1-33.8c8.4.1 16.8.1 25.3.1 16.8 0 33.6 0 50.4-.1.4 0 .9 0 1.3-.2 2.9-1.8 4.2-4.3 3.7-7.8-.4-2.7-3-5.1-5.7-5.1h-21.8c-36.6 0-73.2-.1-109.8 0-6.1 0-12.2.2-18.3.5-1.3.1-2.9.4-3.9 1.1-1.4 1-2.1 2.6-2.2 4.4-.3 3.7 2.4 7.3 6 7.1 1.5-.1 2.9.1 4.4.1 23.4-.1 47-.1 70.6-.1zm-37.2 67.6c3.3.1 6.5.1 9.8.1 9.3-.1 18.5-.2 27.8-.2 3.7 0 5.7-2.9 6-5.4.4-3.5-1.5-7.4-6.1-7.3-1.1 0-2.2-.1-3.3-.1-19.4-.1-38.8-.2-58.3-.2-4.9 0-9.8.3-14.7.4-1.8.1-3.1.9-4.1 2.4-1.4 2.2-1.5 4.6-.4 6.9 1.1 2.2 2.8 3.4 5.3 3.4.7 0 1.4.1 2.1.1 12-.1 24-.1 35.9-.1z"/><path d="M268.3 125.4v.2h-32v-.2h32zM358 191.8c-.1-.3-.2-.5-.2-.8v-21.3h.2v22.1zM141.6 180.1c.1.3.2.6.2.9v13.6c0 .3-.1.6-.2.9v-15.4zM358 242.4c-.1-.3-.2-.5-.2-.8v-10.5c0-.3.1-.5.2-.8v12.1zM141.6 209.1c.1.3.2.6.2.9v8.8h-.2v-9.7zM141.6 218.8h.2v7.8c0 .3-.1.7-.2 1v-8.8z"/><path d="M358 169.8h-.2v-7.2c0-.4.1-.7.2-1.1v8.3zM141.6 169.1c.1.2.2.4.2.7-.1 1.8-.1 3.7-.2 5.5v-6.2z"/></g><g><path d="M121.1 385.8c0-1.2.1-1.2.1-2.4s-.3-1.2-.3-2.4.1-1.2.1-2.4-.1-1.2-.1-2.4.3-1.2.3-2.4v-2.2c0-1.2-.1-1.2-.1-2.4s-.1-1.2-.1-2.4.2-1.2.2-2.4-.3-1.2-.3-2.4.3-1.2.3-2.4-.1-1.2-.1-2.4.1-1.2.1-2.4c0-2.2 1-3.1 3.1-3.1 1.3 0 1.3-.3 2.6-.3s1.3.1 2.6.1 1.3.2 2.6.2 1.3-.1 2.6-.1h5.2c1.6 0 3.2 1.9 3.2 3.4-.2 2-1 3.4-3.2 3.4-1.3 0-1.3-.3-2.6-.3s-1.3.2-2.6.2-1.3-.1-2.6-.1-1.3.1-2.6.1c-1.1 0-2.2 1-2.2 2.2 0 1 .3 1 .3 1.9 0 1-.2 1-.2 1.9 0 1.1 1 1.9 2.1 1.9h2.5c1.2 0 1.2.2 2.5.2s1.2-.2 2.5-.2c.9 0 1.6.5 2.2 1.1.6.6 1 2.2 1 2.2 0 1.9-1.3 3.3-3.2 3.3-1.2 0-1.2.1-2.5.1H132c-1.2 0-1.2-.2-2.5-.2-1.1 0-1.9 1-1.9 2.1s-.1 1.1-.1 2.3-.1 1.1-.1 2.3c0 1.1.1 1.1.1 2.3s-.2 1.1-.2 2.3c0 1.1.1 1.1.1 2.3 0 2.2-1.1 3.2-3.2 3.2-1.9-.8-3.1-1.5-3.1-3.7zM154.6 389.4c-1.7 0-3.5-1.8-3.5-3.5 0-1.2.2-1.2.2-2.4s-.2-1.2-.2-2.4.1-1.2.1-2.4.2-1.2.2-2.4-.2-1.2-.2-2.4.3-1.2.3-2.4-.1-1.2-.1-2.4v-2.4c0-1.2-.1-1.2-.1-2.4s.1-1.2.1-2.4-.3-1.2-.3-2.4.1-1.2.1-2.4v-2.4c0-1.9 1.2-3.5 3.2-3.5h10.4c1.3 0 1.3.1 2.6.1s1.3-.1 2.6-.1c1.8 0 3.3 1.7 3.3 3.5s-1.6 3.3-3.3 3.3c-1.3 0-1.3-.2-2.6-.2s-1.3.4-2.6.4-1.3-.1-2.6-.1-1.3-.3-2.6-.3c-1.1 0-1.9 1-1.9 2.2 0 1 .1 1 .1 1.9 0 1-.3 1-.3 1.9 0 1.1 1.1 1.9 2.2 1.9 1.2 0 1.2.2 2.5.2s1.2-.1 2.5-.1c1.2 0 1.2.1 2.5.1.9 0 1.7.4 2.3 1s.9 2.3.9 2.3c0 1.5-1.6 3.5-3.2 3.5-1.2 0-1.2-.2-2.5-.2-1.2 0-1.2-.1-2.5-.1s-1.2.1-2.5.1c-1.1 0-2.2.9-2.2 2 0 1.5.1 1.5.1 2.9s.2 1.5.2 2.9c0 1.1.8 2.1 1.9 2.1 1.3 0 1.3.1 2.6.1s1.3-.2 2.6-.2 1.3.1 2.6.1 1.3.2 2.6.2c2.2 0 3.3.9 3.3 3.2-.4 2-1.1 3.2-3.3 3.2-1.3 0-1.3.1-2.6.1s-1.3-.2-2.6-.2-1.3.3-2.6.3-1.3-.1-2.6-.1-1.3-.2-2.6-.2h-2.5v.5zM185.2 389.4c-1.7 0-3.5-1.8-3.5-3.5 0-1.2.2-1.2.2-2.4s-.2-1.2-.2-2.4.1-1.2.1-2.4.2-1.2.2-2.4-.2-1.2-.2-2.4.3-1.2.3-2.4-.1-1.2-.1-2.4v-2.4c0-1.2-.1-1.2-.1-2.4s.1-1.2.1-2.4-.3-1.2-.3-2.4.1-1.2.1-2.4v-2.4c0-1.9 1.2-3.5 3.2-3.5h10.4c1.3 0 1.3.1 2.6.1s1.3-.1 2.6-.1c1.8 0 3.3 1.7 3.3 3.5s-1.6 3.3-3.3 3.3c-1.3 0-1.3-.2-2.6-.2s-1.3.4-2.6.4-1.3-.1-2.6-.1-1.3-.3-2.6-.3c-1.1 0-1.9 1-1.9 2.2 0 1 .1 1 .1 1.9 0 1-.3 1-.3 1.9 0 1.1 1.1 1.9 2.2 1.9 1.2 0 1.2.2 2.5.2 1.2 0 1.2-.1 2.5-.1s1.2.1 2.5.1c.9 0 1.7.4 2.3 1s.9 2.3.9 2.3c0 1.5-1.6 3.5-3.2 3.5-1.2 0-1.2-.2-2.5-.2s-1.2-.1-2.5-.1c-1.2 0-1.2.1-2.5.1-1.1 0-2.2.9-2.2 2 0 1.5.1 1.5.1 2.9s.2 1.5.2 2.9c0 1.1.8 2.1 1.9 2.1 1.3 0 1.3.1 2.6.1s1.3-.2 2.6-.2 1.3.1 2.6.1 1.3.2 2.6.2c2.2 0 3.3.9 3.3 3.2-.4 2-1.1 3.2-3.3 3.2-1.3 0-1.3.1-2.6.1s-1.3-.2-2.6-.2-1.3.3-2.6.3-1.3-.1-2.6-.1-1.3-.2-2.6-.2h-2.5v.5zM241.7 360.4c.4.8.5 1.7.9 2.5.3.8.7 1.6.9 2.4.2.8.1 1.7.2 2.5s.4 1.7.4 2.5c0 .9-.3 1.7-.4 2.5-.1.9 0 1.7-.2 2.5-1 4.2-3.7 7.8-7.1 10.3-2.4 1.8-3.5 2.3-6.5 2.9-.8.2-1.6.2-2.4.3-.8.1-1.6.5-2.4.5-1.1 0-1.1-.2-2.3-.2-1.1 0-1.1-.2-2.3-.2-1.2 0-1.1.1-2.3.1h-2.3c-1.9 0-3.5-1.1-3.5-3.2 0-1.2.1-1.2.1-2.4s-.1-1.2-.1-2.4.2-1.2.2-2.4.1-1.2.1-2.4-.3-1.2-.3-2.4.1-1.2.1-2.4.1-1.2.1-2.4v-4.8c0-1.2-.1-1.2-.1-2.4v-2.4c0-1.2.1-1.2.1-2.4s-.1-1.2-.1-2.4c0-1.7 1.7-3.4 3.4-3.4 1.1 0 1.1-.1 2.3-.1 1.1 0 1.1.2 2.3.2 1.2 0 1.1.2 2.3.2 1.1 0 1.1-.1 2.3-.1 1.6 0 3.2.2 4.8.5 1.4.3 5.8 2.1 6.6 2.8 2.2 2 3.9 3.3 5.2 5.7zm-14.1 21.9c1.5-.2 3.3-.8 4.6-1.6.7-.4 1.2-1.1 1.8-1.7 2.4-2.2 3.5-5.7 3.5-8.8 0-2.4-.1-2.6-.9-4.8-2.1-6.2-7.6-7.5-13.4-7.5-1 0-1 .1-1.9.1-1.1 0-2.1.9-2.1 2 0 1.3.1 1.3.1 2.6s.1 1.3.1 2.6-.2 1.3-.2 2.6-.2 1.3-.2 2.6.1 1.3.1 2.6.1 1.3.1 2.6v2.6c0 1.3-.1 1.3-.1 2.6 0 1.1 1.1 2.2 2.2 2.2 1 0 1-.3 1.9-.3 1 0 1 .3 1.9.3.8-.2 1.7-.6 2.5-.7zM275.7 369.7c1.5 1.8 2.6 5.5 2.6 7.7 0 .9-.1 1.7-.3 2.5-.2.9-.7 1.6-1 2.3-.3.8-.5 1.7-1 2.4-.4.5-3.3 2.6-3.9 2.9-2.2 1-4.3 1.7-6.8 1.7-1.2 0-1.2-.1-2.4-.1s-1.2-.2-2.4-.2-1.2.2-2.4.2-1.2-.3-2.4-.3c-2.3 0-3.3-.8-3.3-3.1 0-1.2.1-1.2.1-2.4s-.1-1.2-.1-2.4-.2-1.2-.2-2.4.1-1.2.1-2.4.2-1.2.2-2.4.1-1.2.1-2.4-.2-1.2-.2-2.4-.2-1.2-.2-2.4.2-1.2.2-2.4-.1-1.2-.1-2.4v-2.4c0-1.2.3-1.2.3-2.4s-.2-1.2-.2-2.4c0-2.1 1.2-3.5 3.3-3.5 1.4 0 1.4.3 2.7.3 1.4 0 1.4-.2 2.7-.2 1.4 0 1.4-.1 2.7-.1 2.4 0 3.3.4 5.3 1.5 3.4 1.8 5.3 5.1 5.3 9 0 2.5-.4 3.3-1.6 5.3-.2.3-.1.9.2 1.1.8 1.1 2.1 1.1 2.7 1.8zm-16.7 4.5c0 1 .2 1 .3 2.1.1 1-.3 1-.3 2.1 0 1 .2 1 .2 2.1s.9 1.9 2.1 1.9c1 0 1 .1 2.1.1 1 0 1 .3 2.1.3.6 0 1.4-.3 2.3-.5 2.1-.5 4-2.8 4-4.9 0-3.6-3-5.1-6.3-5.1-1 0-1 .1-2.1.1s-1-.3-2.1-.3-2.2 1-2.2 2.1h-.1zm5-8.6c.3 0 1.2-.2 2.1-.6 1.4-.6 1.9-1.9 1.9-3.3 0-.9.1-1.6-.2-2.1-.8-1.3-2.3-1.7-3.7-1.7s-1.4.2-2.8.2c-1.1 0-1.9.7-1.9 1.8 0 1.7.1 1.7.1 3.5 0 1.1.8 2.1 1.9 2.1 1.4 0 1.4.1 2.8.1h-.2zM301 352.6c.7-.5 2.3-.8 2.3-.8 1.5 0 3.4 1.3 3.9 2.6.4 1.2.3 1.2.7 2.4.4 1.2.6 1.1 1.1 2.3l.9 2.4c.4 1.2.3 1.2.8 2.4l.8 2.4.8 2.4c.4 1.2.6 1.1 1 2.3l.9 2.4c.4 1.2.3 1.2.7 2.4l.9 2.4c.4 1.2.5 1.1 1 2.3l.9 2.4c.4 1.2.3 1.2.7 2.4.3.7.5 1.3.3 2-.3 1-2.2 2.5-3.2 2.5v.1c-1.4 0-2.6-1.1-3.2-2.3l-1.8-5.2c-.5-1.3-.7-1.2-1.2-2.5-.3-.8-.9-1.2-1.8-1.2h-2.4c-1.2 0-1.2.1-2.4.1s-1.2-.4-2.4-.4-1.2.3-2.4.3c-.9 0-1.7.4-2 1.1-.5 1.3-.5 1.2-1 2.5s-.3 1.3-.8 2.6-.6 1.2-1.1 2.5c-.6 1.5-1.4 2.1-3 2.1v.2c-1.1 0-2.9-1.3-3.2-2.4-.2-.6 0-1.3.3-2.1.4-1.2.2-1.3.6-2.5l1.8-4.8c.4-1.2.3-1.2.7-2.4.4-1.2.6-1.1 1-2.3l.8-2.4c.4-1.2.6-1.1 1.1-2.3.4-1.2.2-1.3.6-2.5l.8-2.4c.4-1.2.6-1.1 1-2.3.4-1.2.2-1.3.6-2.5s.8-1.1 1.2-2.3c.4-1.2.1-1.3 1.9-2.5.3-.5 1.1-1 1.8-1.4zm-.5 18.2c-.2.4 0 .8.5.8 1.2 0 1.2-.2 2.5-.2s1.2.2 2.5.2c.5 0 .8-.5.6-.9-.4-1.1-.2-1.2-.6-2.3s-.6-1-1.1-2.1l-.9-2.2c-.1-.3-.4-.5-.6-.5-.3 0-.5.2-.6.4-.4 1.1-.2 1.2-.6 2.3s-.8 1-1.2 2.1c-.4 1.1-.1 1.2-.5 2.3v.1zM352.2 380.9l2.1-1.5c.6-.6 1.3-1.2 2.2-1.3.9-.1 2.4 1 2.4 1 .6.6.8 1.5.9 2.4s-.2 1.6-.8 2.3c-1.9 2.5-3.6 3.2-6.4 4.3-.8.3-1.6.9-2.4 1.1-.4.1-.8.1-1.3.1h-.4c-.3 0-.6 0-.9.1-.9.1-1.7.1-2.6.1-.6 0-1.4.2-2 .2-.9 0-1.9-.2-2.8-.4-.8-.2-1.5-.7-2.3-1-1.5-.5-2.9-1.3-4.2-2.2-.6-.5-1.5-.7-2.1-1.2-1.1-1-3.7-5.2-4.2-6.5-.9-2.3-1.2-5.1-1.2-7.6 0-7.6 2.8-12.8 9.5-16.7.3-.1 4.4-1.8 4.5-1.8 1.5-.3 3.2-.4 4.8-.4 1.6 0 3.6.1 5.1.5.9.2 1.6.6 2.4 1 .8.3 1.7.4 2.5.9.8.4 1.5.9 2.2 1.5s1.2 1.3 1.8 1.9c0 0 1 1.5.9 2.4s-.5 1.7-1.1 2.3c0 0-1.5 1-2.4.9s-1.6-.5-2.2-1.2l-2.1-1.5c-1.5-.9-5.7-2.1-7.2-2.1-.8 0-1.6.2-2.4.4-1.9.3-5.3 1.7-6.6 3-2.5 2.3-3.1 5.7-3.1 8.9 0 .9-.2 1.7-.1 2.4.1.9.6 1.6.9 2.3.3.8.4 1.7.8 2.3.3.5 3 3.1 3.5 3.4 1.3.8 3.1 1.4 4.6 1.6.8.2 1.6.3 2.4.3 2.3 0 5.3-1.1 7.2-2.2h.1zM389.7 351.7c1.9 0 4.5 2.5 4.5 4.5 0 .8-.3 1.8-1 2.4-.9.8-1 .6-1.8 1.5-.9.8-.7 1-1.6 1.8s-1 .7-1.8 1.5c-.9.8-.8.9-1.7 1.7l-1.7 1.6-1.8 1.6c-.9.8-.8.9-1.6 1.7-.2.2-.4.4-.2.6.9.9 1 .8 1.9 1.7.9.9 1 .8 1.9 1.6.9.9 1 .8 1.9 1.7l1.8 1.8c.9.9 1 .8 1.9 1.7.9.9.8 1 1.7 1.8.9.9.8 1 1.7 1.9s1.1.6 2.1 1.5c.7.6 1 1.6 1 2.4 0 .9-.3 1.8-.9 2.5-.6.6-2.5.7-2.5.7-.9 0-1.6-.3-2.2-.9-.9-.8-1.1-.6-1.9-1.4-.9-.8-.7-1-1.6-1.8s-1-.6-1.9-1.5c-.9-.8-.8-1-1.6-1.8l-1.7-1.6-1.8-1.6-1.7-1.7c-.9-.8-1-.6-1.9-1.5-.9-.8-.7-1-1.6-1.8-.1-.1-.1-.1-.2-.1-.2 0-.5.1-.5.1-.1.1-.2.3-.2.4v2.3c0 1.1-.1 1.1-.1 2.3 0 1.1.2 1.1.2 2.3s-.2 1.1-.2 2.3-.1 1.1-.1 2.3c0 1.9-1.1 3.3-3.1 3.3-3.4-1.1-3.5-2.7-3.5-5.7 0-1.2.2-1.2.2-2.4s.1-1.2.1-2.4v-2.4c0-1.2-.3-1.2-.3-2.4s.2-1.2.2-2.4-.3-1.2-.3-2.4.1-1.2.1-2.4v-2.4c0-1.2.1-1.2.1-2.4s.1-1.2.1-2.4-.1-1.2-.1-2.4.1-1.2.1-2.4c0-1.7 1.6-3.2 3.2-3.2 1.6.3 3.5 1.3 3.5 3.2 0 1.1-.2 1.1-.2 2.3v2.3c0 1.1-.1 1.1-.1 2.3 0 1.1-.1 1.1-.1 2.3 0 .3.4.5.8.5.1 0 .2-.1.3-.1.9-.9 1-.8 1.9-1.7s.7-1.1 1.6-1.9 1-.8 1.9-1.6c.9-.9 1-.8 1.9-1.6.9-.9.7-1.1 1.6-1.9s1.1-.6 2-1.5.7-1.1 1.6-1.9c.5-.6 1.1-.8 1.7-.8z"/></g></svg>