<svg xmlns="http://www.w3.org/2000/svg" xmlns:xlink="http://www.w3.org/1999/xlink" viewBox="0 0 500 500"><defs><path id="a" d="M0 0h500v500H0z"/></defs><clipPath id="b"><use xlink:href="#a" overflow="visible"/></clipPath><path clip-path="url(#b)" fill="#FFF" d="M493.5 250c0 133.4-108.1 241.5-241.5 241.5S10.5 383.4 10.5 250 118.6 8.5 252 8.5 493.5 116.6 493.5 250"/><defs><path id="c" d="M0 0h500v500H0z"/></defs><clipPath id="d"><use xlink:href="#c" overflow="visible"/></clipPath><circle clip-path="url(#d)" fill="none" stroke="#A10000" stroke-width="16" stroke-miterlimit="10" cx="252" cy="250" r="241.5"/><g fill="#A10000"><path d="M141.6 169.1v-8.8c.1-.4.2-.7.2-1.1l.3-14.2c0-1.5.1-3 .4-4.4 2.4-8.7 9.8-14.4 18.8-14.5 18-.2 36-.3 54.1-.5 7-.1 14 0 21-.1h33.3c23 .2 46 .3 69.1.4 4.9 0 9 1.8 12.5 5 4.1 3.7 6.5 8.4 6.5 14.1 0 .9.2 1.8.3 2.6v13.7c-.1.4-.2.7-.2 1.1v28.5c0 .3.1.5.2.8v38.4c-.1.3-.2.5-.2.8v10.5c0 .3.1.5.2.8v14.6c-.1.2-.2.4-.2.6-.1 1.7-.2 3.3-.2 5 0 4.4-1.7 8.2-4.6 11.5-3.2 3.5-7 6.3-11.9 6.6-3.1.2-6.2.4-9.4.4-26 .1-51.9.1-77.9.1-.8 0-1.3.2-1.9.8-11.7 11.7-23.4 23.4-35.2 35.1-3.5 3.5-7.3 6.9-10.9 10.3-2.7 2.5-8.8.3-9.4-3.4-.2-1.6-.4-3.3-.4-4.9-.1-12.2-.1-24.4-.2-36.5V281h-1.3c-11.1-.1-22.2-.1-33.3-.2-5.8-.1-10.6-2.6-14.3-6.9-3-3.3-4.7-7.2-4.7-11.8 0-4.8-.2-9.6-.3-14.5 0-.4-.1-.7-.2-1.1v-19c.1-.3.2-.7.2-1v-16.6c0-.3-.1-.6-.2-.9v-13.5c.1-.3.2-.6.2-.9V181c0-.3-.1-.6-.2-.9v-4.9c.1-1.8.2-3.7.2-5.5-.1-.2-.3-.4-.4-.6zm108.3 30.7c11.2 0 22.4.1 33.7 0 14.1 0 28.1 0 42.2-.1.4 0 .8 0 1.1-.2 3.2-1.9 4.3-4.4 3.7-8.1-.4-2.5-3.1-4.8-5.6-4.8-11.3 0-22.6-.1-33.9-.1-31.3 0-62.5-.1-93.8 0-7.4 0-14.9.2-22.3.5-1.3 0-3 .3-3.9 1.1-2 1.7-2.7 4.1-2.1 6.7.7 2.9 2.8 4.7 5.8 4.8 1.5.1 3 .1 4.5.1 23.6.1 47.1.1 70.6.1zm.1-33.8c8.4.1 16.8.1 25.3.1 16.8 0 33.6 0 50.4-.1.4 0 .9 0 1.3-.2 2.9-1.8 4.2-4.3 3.7-7.8-.4-2.7-3-5.1-5.7-5.1h-21.8c-36.6 0-73.2-.1-109.8 0-6.1 0-12.2.2-18.3.5-1.3.1-2.9.4-3.9 1.1-1.4 1-2.1 2.6-2.2 4.4-.3 3.7 2.4 7.3 6 7.1 1.5-.1 2.9.1 4.4.1 23.4-.1 47-.1 70.6-.1zm-37.2 67.6c3.3.1 6.5.1 9.8.1 9.3-.1 18.5-.2 27.8-.2 3.7 0 5.7-2.9 6-5.4.4-3.5-1.5-7.4-6.1-7.3-1.1 0-2.2-.1-3.3-.1-19.4-.1-38.8-.2-58.3-.2-4.9 0-9.8.3-14.7.4-1.8.1-3.1.9-4.1 2.4-1.4 2.2-1.5 4.6-.4 6.9 1.1 2.2 2.8 3.4 5.3 3.4.7 0 1.4.1 2.1.1 12-.1 24-.1 35.9-.1z"/><path d="M268.3 125.4v.2h-32v-.2h32zm89.7 66.4c-.1-.3-.2-.5-.2-.8v-21.3h.2v22.1zm-216.4-11.7c.1.3.2.6.2.9v13.6c0 .3-.1.6-.2.9v-15.4zM358 242.4c-.1-.3-.2-.5-.2-.8v-10.5c0-.3.1-.5.2-.8v12.1zm-216.4-33.3c.1.3.2.6.2.9v8.8h-.2v-9.7zm0 9.7h.2v7.8c0 .3-.1.7-.2 1v-8.8z"/><path d="M358 169.8h-.2v-7.2c0-.4.1-.7.2-1.1v8.3zm-216.4-.7c.1.2.2.4.2.7-.1 1.8-.1 3.7-.2 5.5v-6.2z"/></g><g><path d="M115.5 390.7V359c0-1.9 1.5-3.4 3.4-3.4h15.9c1.9 0 3.4 1.5 3.4 3.4s-1.5 3.4-3.4 3.4h-10.5c-1.2 0-2.1.9-2.1 2.1v4c0 1.2.9 2.1 2.1 2.1h7.5c1.9 0 3.4 1.5 3.4 3.4s-1.5 3.4-3.4 3.4h-7.5c-1.2 0-2.1.9-2.1 2.1v11.4c0 1.9-1.5 3.4-3.4 3.4s-3.3-1.7-3.3-3.6zM150 394c-1.9 0-3.6-1.4-3.6-3.3V359c0-1.9 1.5-3.4 3.4-3.4h15.9c1.9 0 3.4 1.5 3.4 3.4s-1.5 3.4-3.4 3.4h-10.5c-1.2 0-2.1.9-2.1 2.1v4c0 1.2.9 2.1 2.1 2.1h7.5c1.9 0 3.4 1.5 3.4 3.4s-1.5 3.4-3.4 3.4h-7.5c-1.2 0-2.1.9-2.1 2.1v6c0 1.2.9 2.1 2.1 2.1h10.5c1.9 0 3.4 1.5 3.4 3.4s-1.5 3.4-3.4 3.4H150zM181 394c-1.9 0-3.6-1.4-3.6-3.3V359c0-1.9 1.5-3.4 3.4-3.4h15.9c1.9 0 3.4 1.5 3.4 3.4s-1.5 3.4-3.4 3.4h-10.5c-1.2 0-2.1.9-2.1 2.1v4c0 1.2.9 2.1 2.1 2.1h7.5c1.9 0 3.4 1.5 3.4 3.4s-1.5 3.4-3.4 3.4h-7.5c-1.2 0-2.1.9-2.1 2.1v6c0 1.2.9 2.1 2.1 2.1h10.5c1.9 0 3.4 1.5 3.4 3.4s-1.5 3.4-3.4 3.4H181zM240.6 374.8c0 11.3-8 19.2-19.2 19.2H212c-1.9 0-3.5-1.5-3.5-3.5V359c0-1.9 1.5-3.5 3.5-3.5h9.3c11.4 0 19.3 8 19.3 19.3zm-19.3 12.5c5.8 0 12.5-3.3 12.5-12.5s-6.7-12.5-12.5-12.5h-4c-1.2 0-2.1.9-2.1 2.1v20.8c0 1.2.9 2.1 2.1 2.1h4zM274.8 382c0 7.6-5.7 12-13 12h-9.5c-1.9 0-3.5-1.5-3.5-3.5V359c0-1.9 1.5-3.5 3.5-3.5h8.2c6.2 0 10.8 4.3 10.8 10.6 0 2-.5 3.8-1.4 5.4-.2.3-.1.7.2.9 3.1 2.2 4.7 5.5 4.7 9.6zm-14.3-12c.7 0 4.1-.3 4.1-3.9s-3.4-3.8-4.1-3.8h-2.8c-1.2 0-2.1.9-2.1 2.1v3.5c0 1.2.9 2.1 2.1 2.1h2.8zm-4.9 15c0 1.2.9 2.1 2.1 2.1h4.1c1.9 0 6.3-.5 6.3-5.3s-4.4-5.3-6.3-5.3h-4.1c-1.2 0-2.1.9-2.1 2.1v6.4zM295.5 358.3c.7-1.6 2.3-2.8 4.1-2.8s3.4 1.1 4 2.8l12.1 31.1c.9 2.2-.8 4.6-3.1 4.6-1.4 0-2.6-.9-3.1-2.2l-3.1-8.1c-.3-.8-1.1-1.3-2-1.3h-9.5c-.9 0-1.6.5-2 1.3l-3.1 8.1c-.5 1.3-1.8 2.2-3.1 2.2-2.4 0-4-2.4-3.1-4.6l11.9-31.1zm.7 16.5c-.2.4.2.9.7.9h5.1c.5 0 .8-.5.7-.9l-2.5-6.5c-.1-.3-.4-.4-.6-.4-.3 0-.6.1-.7.4l-2.7 6.5zM352.7 383.6c.7-.7 1.5-1.1 2.5-1.1.8 0 1.6.3 2.3.9 1.4 1.3 1.4 3.4.2 4.8-3.5 3.7-8.6 5.8-14.3 5.8-11.3 0-19.2-7.9-19.2-19.2 0-11.3 8-19.2 19.2-19.2 5.7 0 10.8 2.1 14.3 5.8 1.3 1.4 1.2 3.5-.2 4.8-.7.6-1.5.9-2.3.9-.9 0-1.8-.4-2.5-1.1-2.2-2.4-5.6-3.7-9.3-3.7-5.8 0-12.5 3.2-12.5 12.5 0 9.2 6.7 12.5 12.5 12.5 3.7-.1 7.1-1.4 9.3-3.7zM391.8 361.5l-12.5 11.9c-.2.2-.2.5 0 .7l15.2 14.2c2.3 2.1.8 5.8-2.3 5.8-.9 0-1.7-.3-2.3-.9l-15.5-14.6c-.1-.1-.2-.1-.3-.1-.3 0-.5.2-.5.4v11.8c0 1.9-1.5 3.4-3.4 3.4s-3.4-1.5-3.4-3.4V359c0-1.9 1.5-3.4 3.4-3.4s3.4 1.5 3.4 3.4v9.3c0 .3.2.5.5.5.1 0 .2 0 .3-.1l12.9-12.2c.6-.6 1.4-.9 2.3-.9 3.1-.1 4.4 3.8 2.2 5.9z"/></g></svg>