<?xml version="1.0" encoding="iso-8859-1"?>
<!-- Generator: Adobe Illustrator 18.0.0, SVG Export Plug-In . SVG Version: 6.00 Build 0)  -->
<!DOCTYPE svg PUBLIC "-//W3C//DTD SVG 1.1//EN" "http://www.w3.org/Graphics/SVG/1.1/DTD/svg11.dtd">
<svg version="1.1" id="Capa_1" xmlns="http://www.w3.org/2000/svg" xmlns:xlink="http://www.w3.org/1999/xlink" x="0px" y="0px"
	 viewBox="0 0 458.692 458.692" style="enable-background:new 0 0 458.692 458.692;" xml:space="preserve">
<path d="M398.955,426.097c-14.266-28.665-22.051-60.737-22.515-92.751l-1.536-105.971c-0.155-10.774-3.322-21.258-9.159-30.319
	l-54.251-84.213c-0.196-0.305-0.417-0.593-0.662-0.861c-8.712-9.551-18.973-17.413-30.298-23.303l-34.488-52.092
	c-6.315-9.525-16.91-15.212-28.34-15.212c-2.142,0-4.263,0.208-6.347,0.605l-4.477-6.761C200.579,5.689,189.987,0,178.551,0
	c-6.677,0-13.155,1.956-18.728,5.65c-7.568,5.003-12.732,12.658-14.542,21.552c-1.534,7.544-0.489,15.206,2.919,21.972l-1.901-0.533
	c-10.012-2.72-20.765-1.081-29.511,4.493s-14.773,14.633-16.535,24.854c-2.146,12.451,2.355,24.89,11.189,33.206
	c-29.711,5.138-52.387,31.081-52.387,62.238c0,29.456,20.263,54.263,47.581,61.226c-0.254,0.266-0.508,0.531-0.753,0.807
	c-11.425,12.854-10.566,32.157,1.954,43.945l50.043,47.12c20.167,18.988,44.57,33.156,70.883,41.448l29.778,86.333
	c0.929,2.692,3.448,4.382,6.145,4.382c0.702,0,1.418-0.115,2.119-0.357c3.394-1.17,5.196-4.87,4.025-8.264l-26.911-78.023
	c6.838,1.528,13.768,2.674,20.757,3.402c3.576,0.374,6.768-2.22,7.139-5.792c0.372-3.57-2.221-6.767-5.791-7.138
	c-36.946-3.849-72.188-19.992-99.23-45.456l-50.043-47.12c-7.363-6.933-7.868-18.285-1.148-25.844
	c6.389-7.187,17.398-8.271,25.065-2.474l39.825,30.112c15.802,11.948,37.189,12.156,53.22,0.519
	c0.043-0.031,0.086-0.063,0.129-0.096l24.015-18.354c12.715-9.718,17.347-26.844,11.264-41.648l-28.735-69.921
	c-0.748-1.821-2.281-3.205-4.17-3.763L127.482,106.35c-10.253-4.245-16.307-15.196-14.418-26.153
	c1.158-6.718,4.963-12.436,10.711-16.1c5.75-3.664,12.541-4.698,19.065-2.925l112.488,31.542
	c17.508,4.755,33.243,14.306,45.538,27.634l53.95,83.747c4.518,7.013,6.97,15.127,7.09,23.467l1.536,105.972
	c0.491,33.948,8.747,67.958,23.874,98.354c1.137,2.284,3.436,3.605,5.824,3.605c0.973,0,1.961-0.219,2.892-0.682
	C399.246,433.212,400.555,429.311,398.955,426.097z M72.055,173.431c0-27.668,22.51-50.179,50.179-50.179
	s50.179,22.51,50.179,50.179s-22.51,50.179-50.179,50.179S72.055,201.099,72.055,173.431z M188.331,261.369l-39.825-30.112
	c-0.11-0.083-0.224-0.159-0.335-0.241c21.933-9.919,37.241-31.991,37.241-57.586c0-15.569-5.672-29.83-15.042-40.854l37.459,11.067
	l12.651,32.465c9.799,25.163,11.842,52.377,5.907,78.697l-1.791,7.915C213.415,269.94,199.063,269.482,188.331,261.369z
	 M257.095,217.101c3.853,9.376,0.919,20.223-7.135,26.377l-9.525,7.28c4.708-26.686,2.045-53.979-7.842-79.368l-8.996-23.087
	l5.947,1.757L257.095,217.101z M161.082,45.534c-3.091-4.664-4.178-10.253-3.062-15.741c1.116-5.489,4.303-10.212,8.979-13.304
	c3.443-2.283,7.438-3.49,11.551-3.49c7.062,0,13.6,3.51,17.492,9.396l32.683,49.358l-61.751-17.315L161.082,45.534z M247.872,77.122
	l-28.241-42.65c6.311,0.576,12.037,3.954,15.578,9.295l24.235,36.606c-0.22-0.061-0.437-0.131-0.657-0.191L247.872,77.122z"/>
<g>
</g>
<g>
</g>
<g>
</g>
<g>
</g>
<g>
</g>
<g>
</g>
<g>
</g>
<g>
</g>
<g>
</g>
<g>
</g>
<g>
</g>
<g>
</g>
<g>
</g>
<g>
</g>
<g>
</g>
</svg>
