<?xml version="1.0" encoding="iso-8859-1"?>
<!-- Generator: Adobe Illustrator 18.0.0, SVG Export Plug-In . SVG Version: 6.00 Build 0)  -->
<!DOCTYPE svg PUBLIC "-//W3C//DTD SVG 1.1//EN" "http://www.w3.org/Graphics/SVG/1.1/DTD/svg11.dtd">
<svg version="1.1" id="Capa_1" xmlns="http://www.w3.org/2000/svg" xmlns:xlink="http://www.w3.org/1999/xlink" x="0px" y="0px"
	 viewBox="0 0 408.71 408.71" style="enable-background:new 0 0 408.71 408.71;" xml:space="preserve">
<g>
	<path d="M377.888,90.539c-0.675-3.525-4.067-5.836-7.605-5.163l-43.385,8.301c-11.8,2.267-21.844,9.61-27.563,20.15l-0.193,0.344
		c-0.018,0.03-0.034,0.06-0.05,0.09c-12.18,22.447-29.573,42.223-50.303,57.19l-10.19,7.36c-0.281,0.203-0.545,0.428-0.791,0.673
		l-69.759,69.76c-7.024,7.022-17.944,7.898-25.966,2.086c-0.861-0.626-1.685-1.329-2.442-2.086
		c-3.796-3.797-5.887-8.841-5.887-14.205c0-5.37,2.089-10.413,5.886-14.204l45.912-45.912c16.833-16.844,18.861-43.027,4.822-62.257
		c-9.008-12.34-23.498-19.708-38.76-19.708c-0.943,0-4.021,0.161-5.354,0.233c-11.686,0.729-22.682,5.69-30.962,13.971l-38.18,38.18
		c-1.196,1.196-1.879,2.811-1.903,4.501l-1,68.499c-0.057,3.838-1.554,7.448-4.146,10.196h-4.834c-3.011,0-5.537,2.051-6.275,4.83
		c-0.002,0-0.003,0-0.005,0c-8.409,0-15.25-6.832-15.25-15.23c0-0.226,3.564-88.083,3.564-88.083
		c0.125-3.033,1.349-5.89,3.455-8.055l96.86-100C153.408,16.197,161.148,13,169.385,13h116.859c3.59,0,6.5-2.91,6.5-6.5
		s-2.91-6.5-6.5-6.5H169.385c-11.726,0-22.744,4.562-31.027,12.844c-0.024,0.024-0.048,0.049-0.072,0.074l-96.889,100.03
		c-4.333,4.453-6.86,10.339-7.117,16.579c0,0-3.575,88.24-3.575,88.614c0,15.492,12.554,28.105,28.03,28.225V402.21
		c0,3.59,2.91,6.5,6.5,6.5h73.03c3.59,0,6.5-2.91,6.5-6.5V266.874c2.979,0.859,6.035,1.308,9.089,1.308
		c8.499,0,16.942-3.3,23.388-9.745l69.391-69.392l9.768-7.054c22.286-16.09,40.99-37.352,54.093-61.483l0.195-0.347
		c0.019-0.033,0.037-0.065,0.055-0.098c3.852-7.123,10.634-12.087,18.604-13.618l43.38-8.3
		C376.252,97.47,378.563,94.064,377.888,90.539z M121.389,241.54c1.081,5.453,3.528,10.525,7.16,14.82H71.735v-14.82H121.389z
		 M71.735,353.002h60.03v14.88h-60.03V353.002z M71.735,340.002v-14.881h60.03v14.881H71.735z M71.735,312.122v-14.881h60.03v14.881
		H71.735z M71.735,284.241V269.36h60.03v14.881H71.735z M124.492,116.356c6.038-6.039,14.057-9.657,22.523-10.186
		c1.847-0.1,4.131-0.208,4.6-0.211c8.865,0,17.367,3.42,23.782,9.359l-22.642,15.625c-2.955,2.039-3.697,6.087-1.658,9.042
		c1.261,1.828,3.291,2.809,5.355,2.809c1.272,0,2.56-0.373,3.686-1.151l23.009-15.878c6.432,13.225,3.964,29.209-6.788,39.968
		l-6.567,6.567l-42.318,0.759c-7.811-0.029-14.156-6.392-14.156-14.208v-31.321L124.492,116.356z M87.213,218.535l0.962-65.863
		l12.142-12.141v18.321c0,15.003,12.206,27.208,27.209,27.208c0.039,0,0.078,0,0.116-0.001l28.91-0.519l-26.099,26.1
		c-4.693,4.685-7.804,10.534-9.064,16.9H85.22C86.468,225.395,87.162,222.015,87.213,218.535z M71.735,395.71v-14.827h60.03v14.827
		H71.735z"/>
	<path d="M239.267,367.883h-73.035c-3.59,0-6.5,2.91-6.5,6.5v27.824c0,3.59,2.91,6.5,6.5,6.5h73.035c3.59,0,6.5-2.91,6.5-6.5
		v-27.824C245.767,370.793,242.857,367.883,239.267,367.883z M232.767,395.707h-60.035v-14.824h60.035V395.707z"/>
</g>
<g>
</g>
<g>
</g>
<g>
</g>
<g>
</g>
<g>
</g>
<g>
</g>
<g>
</g>
<g>
</g>
<g>
</g>
<g>
</g>
<g>
</g>
<g>
</g>
<g>
</g>
<g>
</g>
<g>
</g>
</svg>
