<svg xmlns="http://www.w3.org/2000/svg" xmlns:xlink="http://www.w3.org/1999/xlink" viewBox="0 0 500 500"><defs><path id="a" d="M0 0h500v500H0z"/></defs><clipPath id="b"><use xlink:href="#a" overflow="visible"/></clipPath><path clip-path="url(#b)" fill="#FFF" d="M493.5 250c0 133.4-108.1 241.5-241.5 241.5S10.5 383.4 10.5 250 118.6 8.5 252 8.5 493.5 116.6 493.5 250"/><defs><path id="c" d="M0 0h500v500H0z"/></defs><clipPath id="d"><use xlink:href="#c" overflow="visible"/></clipPath><circle clip-path="url(#d)" fill="none" stroke="#A10000" stroke-width="16" stroke-miterlimit="10" cx="252" cy="250" r="241.5"/><g><path fill="#A10000" d="M135.5 216.3V203c.1-.2.2-.5.2-.7.5-4.1.8-8.3 1.5-12.4 3.7-20.8 12.4-39.3 26.3-55.1 20.4-23.2 46.1-36.4 76.9-39.3 1-.1 2-.3 3-.4H256c.2.1.4.2.6.2 6.9.4 13.7 1.4 20.4 3 47.6 11.5 82.9 52.8 87 101.7.1 1.2.3 2.3.4 3.5v12.9c-.1.2-.2.4-.2.6-.8 5.6-1.2 11.2-2.4 16.7-5.2 24.1-17.1 44.5-35.4 60.9-19 17.1-41.4 26.8-67 29.1-1.1.1-2.3.3-3.4.4h-12.4c-.3-.1-.5-.2-.8-.2-7.3-.5-14.4-1.6-21.5-3.4-17.9-4.7-33.8-13.1-47.5-25.5-22.4-20.3-35.1-45.5-38-75.6 0-1.2-.2-2.2-.3-3.1zm88.3 16H276c4.5-15.2 4.7-30.4 1.3-45.7h-53.4c-3.2 15.3-3.2 30.5-.1 45.7zm115.5.1c.1-.2.2-.4.2-.6 1.9-5.9 2.8-11.9 3.1-18 .5-8.9-.4-17.6-3-26.1-.2-.8-.6-1.1-1.4-1.1h-38c1 15.3 2.2 30.5.1 45.8h39zm-138.4 0c-1-15.3-2.3-30.5-.1-45.6-.2-.1-.2-.1-.3-.1h-38c-.3 0-.7.4-.8.7-1.5 4.3-2.3 8.8-2.8 13.3-.7 6.6-.7 13.1.3 19.7.6 4.1 1.6 8.1 2.4 12.1 13.2-.1 26.1-.1 39.3-.1zM250 117.9c-9.4 14.3-17 29.4-21.7 45.8h43.5c-4.5-16.6-12.3-31.5-21.8-45.8zm0 183.2c9.4-14.3 16.9-29.3 21.7-45.7h-43.4c1.9 10.5 13 33.8 21.7 45.7zm79-137.4c-11.1-20.1-28.3-32.7-49.3-41.3 6.7 13.4 12.8 26.8 16.1 41.3H329zM219.9 296.4c-3-6.7-6.1-13.3-9-20.1-2.9-6.8-5.1-13.8-6.8-20.9H171c8.8 17.3 27.1 32.6 48.9 41zm59.8.2c21.1-8.5 38.2-21.1 49.3-41.2h-33.2c-3.4 14.4-8.9 27.9-16.1 41.2zM171 163.7h33.2c3.2-14.5 9.3-27.8 16-41.2-21 8.3-37.6 21.7-49.2 41.2z"/></g><g><path d="M111.6 358.2v26.3c0 1.2.9 2.1 2.1 2.1h11.1c1.9 0 3.4 1.5 3.4 3.4s-1.5 3.4-3.4 3.4h-16.6c-1.9 0-3.4-1.5-3.4-3.4v-31.7c0-1.9 1.5-3.4 3.4-3.4s3.4 1.4 3.4 3.3zM148.9 357.5c.7-1.6 2.3-2.8 4.1-2.8s3.4 1.1 4 2.8l12.1 31.1c.9 2.2-.8 4.6-3.1 4.6-1.4 0-2.6-.9-3.1-2.2l-3.1-8.1c-.3-.8-1.1-1.3-2-1.3h-9.5c-.9 0-1.6.5-2 1.3l-3.1 8.1c-.5 1.3-1.8 2.2-3.1 2.2-2.4 0-4-2.4-3.1-4.6l11.9-31.1zm.8 16.5c-.2.4.2.9.7.9h5.1c.5 0 .8-.5.7-.9l-2.5-6.5c-.1-.3-.4-.4-.6-.4-.3 0-.5.1-.7.4l-2.7 6.5zM203.1 379.1c.2.2.4.3.6.3.3 0 .5-.2.5-.6v-20.6c0-1.9 1.5-3.4 3.4-3.4s3.4 1.5 3.4 3.4v31.7c0 1.9-1.5 3.4-3.4 3.4-1 0-1.9-.4-2.6-1.2l-19.6-23.2c-.2-.2-.4-.3-.5-.3-.4 0-.7.3-.7.7v20.6c0 1.9-1.5 3.4-3.4 3.4s-3.4-1.5-3.4-3.4v-31.7c0-1.9 1.5-3.4 3.4-3.4 1 0 1.9.4 2.6 1.2l19.7 23.1zM226.1 374.1c0 9.2 6.7 12.5 12.5 12.5 2 0 8.5-.9 8.5-3.8v-.2c0-1.2-.9-2.1-2.1-2.1h-7.3c-1.9 0-3.4-1.5-3.4-3.4s1.5-3.4 3.4-3.4h12.7c1.9 0 3.4 1.5 3.4 3.4v8.1c0 .9-.3 1.7-.9 2.3-3.5 3.7-8.6 5.8-14.3 5.8-11.3 0-19.2-7.9-19.2-19.2 0-11.3 8-19.2 19.2-19.2 5.7 0 10.8 2.1 14.3 5.8 1.3 1.4 1.2 3.5-.2 4.8-.7.6-1.5.9-2.3.9-.9 0-1.8-.4-2.5-1.1-2.2-2.4-5.6-3.7-9.3-3.7-5.8-.1-12.5 3.2-12.5 12.5zM285.4 358.2c0-1.9 1.5-3.4 3.4-3.4s3.4 1.5 3.4 3.4v21c0 7.8-6.3 14.1-14.1 14.1h-1.9c-7.8 0-14.1-6.3-14.1-14.1v-21c0-1.9 1.5-3.4 3.4-3.4s3.4 1.5 3.4 3.4v21c0 4.1 3.3 7.4 7.4 7.4h1.9c4.1 0 7.4-3.3 7.4-7.4l-.2-21zM312.9 357.5c.7-1.6 2.3-2.8 4.1-2.8s3.4 1.1 4 2.8l12.1 31.1c.9 2.2-.8 4.6-3.1 4.6-1.4 0-2.6-.9-3.1-2.2l-3.1-8.1c-.3-.8-1.1-1.3-2-1.3h-9.5c-.9 0-1.6.5-2 1.3l-3.1 8.1c-.5 1.3-1.8 2.2-3.1 2.2-2.4 0-4-2.4-3.1-4.6l11.9-31.1zm.8 16.5c-.2.4.2.9.7.9h5.1c.5 0 .8-.5.7-.9l-2.5-6.5c-.1-.3-.4-.4-.6-.4-.3 0-.6.1-.7.4l-2.7 6.5zM348.3 374.1c0 9.2 6.7 12.5 12.5 12.5 2 0 8.5-.9 8.5-3.8v-.2c0-1.2-.9-2.1-2.1-2.1h-7.3c-1.9 0-3.4-1.5-3.4-3.4s1.5-3.4 3.4-3.4h12.7c1.9 0 3.4 1.5 3.4 3.4v8.1c0 .9-.3 1.7-.9 2.3-3.5 3.7-8.6 5.8-14.3 5.8-11.3 0-19.2-7.9-19.2-19.2 0-11.3 8-19.2 19.2-19.2 5.7 0 10.8 2.1 14.3 5.8 1.3 1.4 1.2 3.5-.2 4.8-.7.6-1.5.9-2.3.9-.9 0-1.8-.4-2.5-1.1-2.2-2.4-5.6-3.7-9.3-3.7-5.8-.1-12.5 3.2-12.5 12.5zM387.7 393.2c-1.9 0-3.6-1.4-3.6-3.3v-31.7c0-1.9 1.5-3.4 3.4-3.4h15.9c1.9 0 3.4 1.5 3.4 3.4s-1.5 3.4-3.4 3.4H393c-1.2 0-2.1.9-2.1 2.1v4c0 1.2.9 2.1 2.1 2.1h7.5c1.9 0 3.4 1.5 3.4 3.4s-1.5 3.4-3.4 3.4H393c-1.2 0-2.1.9-2.1 2.1v6c0 1.2.9 2.1 2.1 2.1h10.5c1.9 0 3.4 1.5 3.4 3.4s-1.5 3.4-3.4 3.4h-15.8z"/></g></svg>