<svg xmlns="http://www.w3.org/2000/svg" xmlns:xlink="http://www.w3.org/1999/xlink" viewBox="0 0 500 500"><defs><path id="a" d="M0 0h500v500H0z"/></defs><clipPath id="b"><use xlink:href="#a" overflow="visible"/></clipPath><path clip-path="url(#b)" fill="#FFF" d="M493.5 250c0 133.4-108.1 241.5-241.5 241.5S10.5 383.4 10.5 250 118.6 8.5 252 8.5 493.5 116.6 493.5 250"/><circle clip-path="url(#b)" fill="none" stroke="#A10000" stroke-width="9" stroke-miterlimit="10" cx="252" cy="250" r="241.5"/><g><path d="M113.2 357.1c1.5 0 2.1 1.5 2.1 2.8 0 1.2.2 1.2.2 2.4v4.8c0 1.2-.1 1.2-.1 2.4v2.4c0 1.2.1 1.2.1 2.4s.1 1.2.1 2.4-.1 1.2-.1 2.4.1 1.2.1 2.4-.1 1.2-.1 2.4.2 1.2.2 2.4c0 1.1.9 2.1 2 2.1 1.4 0 1.4-.2 2.7-.2s1.4.1 2.7.1c1.3 0 1.3.2 2.7.2s1.4.1 2.7.1c1.7 0 3.3 1.3 3.3 3.1-.3 2.2-.9 3.2-3.2 3.2-1.1 0-1.1.1-2.3.1-1.1 0-1.1.1-2.3.1-1.1 0-1.1-.2-2.3-.2-1.1 0-1.1-.1-2.3-.1-1.1 0-1.1.3-2.3.3-1.1 0-1.1-.1-2.3-.1-1.1 0-1.1.2-2.3.2-1.5 0-3.5-2.1-3.5-3.5V389c0-1.2.1-1.2.1-2.4s.1-1.2.1-2.4-.1-1.2-.1-2.4v-2.4c0-1.2.1-1.2.1-2.4s.1-1.2.1-2.4.2-1.2.2-2.4-.1-1.2-.1-2.4-.1-1.2-.1-2.4V365v-4.8c-.1-2.2 1.6-3.1 3.9-3.1zM155.2 358c.7-.5 2.3-.8 2.3-.8 1.5 0 3.4 1.3 3.9 2.6.4 1.2.3 1.2.7 2.4.4 1.2.6 1.1 1.1 2.3l.9 2.4c.4 1.2.3 1.2.8 2.4l.8 2.4.8 2.4c.4 1.2.6 1.1 1 2.3l.9 2.4c.4 1.2.3 1.2.7 2.4l.9 2.4c.4 1.2.5 1.1 1 2.3l.9 2.4c.4 1.2.3 1.2.7 2.4.3.7.5 1.3.3 2-.3 1-2.2 2.5-3.2 2.5v.1c-1.4 0-2.6-1.1-3.2-2.3l-1.8-5.2c-.5-1.3-.7-1.2-1.2-2.5-.3-.8-.9-1.2-1.8-1.2h-2.4c-1.2 0-1.2.1-2.4.1s-1.2-.4-2.4-.4-1.2.3-2.4.3c-.9 0-1.7.4-2 1.1-.5 1.3-.5 1.2-1 2.5s-.3 1.3-.8 2.6-.6 1.2-1.1 2.5c-.6 1.5-1.4 2.1-3 2.1v.2c-1.1 0-2.9-1.3-3.2-2.4-.2-.6 0-1.3.3-2.1.4-1.2.2-1.3.6-2.5l1.8-4.8c.4-1.2.3-1.2.7-2.4.4-1.2.6-1.1 1-2.3l.8-2.4c.4-1.2.6-1.1 1.1-2.3.4-1.2.2-1.3.6-2.5l.8-2.4c.4-1.2.6-1.1 1-2.3.4-1.2.2-1.3.6-2.5.4-1.2.8-1.1 1.2-2.3.4-1.2.1-1.3 1.9-2.5.3-.5 1.1-1 1.8-1.4zm-.5 18.2c-.2.4 0 .8.5.8 1.2 0 1.2-.2 2.5-.2 1.2 0 1.2.2 2.5.2.5 0 .8-.5.6-.9-.4-1.1-.2-1.2-.6-2.3s-.6-1-1.1-2.1l-.9-2.2c-.1-.3-.4-.5-.6-.5s-.5.2-.6.4c-.4 1.1-.2 1.2-.6 2.3s-.8 1-1.2 2.1-.1 1.2-.5 2.3v.1zM205.9 381c.3 0 .6-.3.6-.7 0-1.2-.1-1.2-.1-2.5s.1-1.2.1-2.5c0-1.2.2-1.2.2-2.5s.1-1.2.1-2.5c0-1.2-.3-1.2-.3-2.5s-.1-1.2-.1-2.5.3-1.2.3-2.5v-2.5c0-2.2 1-3.3 3.2-3.3 1.9.4 3.3 1.1 3.3 3.3 0 1.2.1 1.2.1 2.4s-.1 1.2-.1 2.4.2 1.2.2 2.4-.3 1.2-.3 2.4.2 1.2.2 2.4.1 1.2.1 2.4-.2 1.2-.2 2.4v4.8c0 1.2.1 1.2.1 2.4s.1 1.2.1 2.4v4.8c0 1.6-2.1 3.5-3.6 3.5-.9 0-1.8-.5-2.4-1.2-.8-1-.9-.9-1.7-1.8-.8-1-.5-1.2-1.4-2.2l-1.6-1.9c-.8-1-1-.8-1.8-1.8s-.9-.9-1.7-1.9l-1.6-2c-.8-1-.9-.9-1.7-1.9-.8-1-.9-.9-1.7-1.9l-1.6-2c-.8-1-.9-.9-1.7-1.8-.8-1-.6-1.1-1.5-2.1-.8-1-.7-1.1-1.5-2.1-.1-.2-.3-.2-.5-.2-.4 0-1 .4-1 .8 0 1.2.3 1.2.3 2.5v2.5c0 1.2-.4 1.2-.4 2.5 0 1.2.2 1.2.2 2.5s-.1 1.2-.1 2.5v5c0 1.2.3 1.2.3 2.5 0 1.6-1.9 3.2-3.5 3.2-1.7 0-3.5-1.4-3.5-3.2v-4.8c0-1.2-.1-1.2-.1-2.4v-2.4c0-1.2.2-1.2.2-2.4s.1-1.2.1-2.4-.3-1.2-.3-2.4.3-1.2.3-2.4-.2-1.2-.2-2.4.3-1.2.3-2.4v-2.4c0-1.2-.3-1.2-.3-2.4s.1-1.2.1-2.4c0-.9.4-1.8 1-2.4.6-.6 2.4-.7 2.4-.7 1 0 2.1.1 2.7.9.8 1 .6 1.2 1.4 2.2l1.6 2c.8 1 .9.9 1.7 1.9.8 1 .9.9 1.7 1.9s.9.9 1.7 1.8c.8 1 .7 1.1 1.5 2.1s.7 1 1.5 2 .9.9 1.7 1.9l1.6 1.9 1.6 2c.8.6 3.5 3.7 4 3.7zM238.3 364.1c-2.5.3-4.8 1.1-6.6 3-.8.6-2.3 3.2-2.6 4.2-.3.7-.1 1.6-.2 2.4-.1.8-.4 1.5-.4 2.4 0 .9 0 1.7.1 2.4.2 1.7 2.1 5.5 3.2 6.5.6.6 1.4.9 2.1 1.3 1.7 1 2.5 1.4 4.5 1.7.8.2 1.6.2 2.4.2.5 0 1 .1 1.5.1 1.2 0 2.5-.4 3.6-.8.9-.3 3.2-1.9 3.2-2.9v-.2c0-1.1-1-2.2-2.2-2.2-1.2 0-1.2-.1-2.4-.1h-2.4c-1.2 0-1.2.2-2.4.2-2.3 0-3.2-1.2-3.2-3.3.2-2.2.9-3.3 3.2-3.3 1.2 0 1.2-.1 2.5-.1s1.2.1 2.5.1c1.2 0 1.2.1 2.5.1s1.2.1 2.5.1 1.2-.1 2.5-.1c1.8 0 3.3 1.4 3.3 3.2 0 1.3-.1 1.3-.1 2.7 0 1.4-.1 1.4-.1 2.7 0 1.4-.1 1.4-.1 2.7 0 .9-.2 1.7-.8 2.3l-.1-.1c-.6.6-1.1 1.4-1.8 1.9s-1.6.7-2.4 1.1c-.8.4-1.3 1.1-2.2 1.5-.8.3-1.7.3-2.6.5-1.7.5-3.2.9-5.1.9-.8 0-1.6-.2-2.4-.3-3.5-.5-6-1-9-3.2-.6-.5-1.1-1.1-1.7-1.7-1.7-1.6-3.8-3.9-4.6-6.2-.7-1.8-1.1-5.8-1.1-7.7 0-.9-.2-1.7-.1-2.5.1-.9.3-1.7.5-2.5.2-.9.8-1.6 1.1-2.4.3-.8.5-1.7.9-2.4 1-1.7 3.7-4.5 5.1-5.6.9-.7 5.2-2.8 6.5-3.1 1.6-.3 3.2-.5 4.8-.5.9 0 1.7.2 2.6.3s1.7.5 2.5.7c.9.2 1.8.3 2.6.6 2.7 1.1 4.5 2.3 6.4 4.5 0 0 .9 1.5.9 2.4s-.4 1.7-1 2.4c0 0-1.5.9-2.4.9-.9-.1-2.3-1.1-2.3-1.1-.6-.6-1.3-1-2-1.5-1.8-1.1-3.8-2.1-6-2.1-1-.5-2-.4-3.2-.1zM287 378.4c.1-1.3-.1-1.3-.1-2.6s.2-1.3.2-2.6-.1-1.3-.1-2.6V368c0-1.3-.1-1.3-.1-2.6s.4-1.3.4-2.6-.4-1.3-.4-2.6c0-1.5 2-3.2 3.5-3.2 1.9.4 3.2 1.1 3.2 3.2 0 1.3.1 1.3.1 2.6v2.6c0 1.3.1 1.3.1 2.6s-.1 1.3-.1 2.6-.1 1.3-.1 2.6.2 1.3.2 2.6-.1 1.3-.1 2.6-.2 1.3-.2 2.6c0 1.8-.1 3-.6 4.8-.3.8-.9 1.4-1.2 2.1-1.2 2.1-2.9 3.9-5 5.2-1.6.9-5.2 1.9-6.9 1.9-3 0-6.1-.5-8.8-2-2-1.2-4.1-2.9-5.3-4.9-.4-.7-.4-1.6-.7-2.3-.6-1.7-.9-2.8-.9-4.7 0-1.3-.2-1.3-.2-2.6s.1-1.3.1-2.6-.1-1.3-.1-2.6-.1-1.3-.1-2.6.3-1.3.3-2.6-.1-1.3-.1-2.6-.1-1.3-.1-2.6.3-1.3.3-2.6c0-.9.3-1.6.9-2.2.6-.6 2.2-.9 2.2-.9 1.8 0 3.3 1.2 3.3 3.1v2.6c0 1.3.1 1.3.1 2.6s.1 1.3.1 2.6-.2 1.3-.2 2.6.1 1.3.1 2.6.1 1.3.1 2.6-.2 1.3-.2 2.6.2 1.3.2 2.6c0 1.6.3 2.8 1.3 4.2 2.1 2.9 4.1 3.1 7.6 3.1.8 0 1.6-.1 2.3-.3.7-.2 3.1-2.1 3.5-2.8.5-.7 1.5-3.3 1.5-4.2-.1-1.4-.1-1.4 0-2.7zM316.7 358c.7-.5 2.3-.8 2.3-.8 1.5 0 3.4 1.3 3.9 2.6.4 1.2.3 1.2.7 2.4.4 1.2.6 1.1 1.1 2.3l.9 2.4c.4 1.2.3 1.2.8 2.4l.8 2.4.8 2.4c.4 1.2.6 1.1 1 2.3l.9 2.4c.4 1.2.3 1.2.7 2.4l.9 2.4c.4 1.2.5 1.1 1 2.3l.9 2.4c.4 1.2.3 1.2.7 2.4.3.7.5 1.3.3 2-.3 1-2.2 2.5-3.2 2.5v.1c-1.4 0-2.6-1.1-3.2-2.3l-1.8-5.2c-.5-1.3-.7-1.2-1.2-2.5-.3-.8-.9-1.2-1.8-1.2h-2.4c-1.2 0-1.2.1-2.4.1s-1.2-.4-2.4-.4-1.2.3-2.4.3c-.9 0-1.7.4-2 1.1-.5 1.3-.5 1.2-1 2.5s-.3 1.3-.8 2.6-.6 1.2-1.1 2.5c-.6 1.5-1.4 2.1-3 2.1v.2c-1.1 0-2.9-1.3-3.2-2.4-.2-.6 0-1.3.3-2.1.4-1.2.2-1.3.6-2.5l1.8-4.8c.4-1.2.3-1.2.7-2.4.4-1.2.6-1.1 1-2.3l.8-2.4c.4-1.2.6-1.1 1.1-2.3.4-1.2.2-1.3.6-2.5l.8-2.4c.4-1.2.6-1.1 1-2.3.4-1.2.2-1.3.6-2.5.4-1.2.8-1.1 1.2-2.3.4-1.2.1-1.3 1.9-2.5.3-.5 1.1-1 1.8-1.4zm-.5 18.2c-.2.4 0 .8.5.8 1.2 0 1.2-.2 2.5-.2s1.2.2 2.5.2c.5 0 .8-.5.6-.9-.4-1.1-.2-1.2-.6-2.3s-.6-1-1.1-2.1l-.9-2.2c-.1-.3-.4-.5-.6-.5-.3 0-.5.2-.6.4-.4 1.1-.2 1.2-.6 2.3s-.8 1-1.2 2.1c-.4 1.1-.1 1.2-.5 2.3v.1zM358.5 364.1c-2.5.3-4.8 1.1-6.6 3-.8.6-2.3 3.2-2.6 4.2-.3.7-.1 1.6-.2 2.4-.1.8-.4 1.5-.4 2.4 0 .9 0 1.7.1 2.4.2 1.7 2.1 5.5 3.2 6.5.6.6 1.4.9 2.1 1.3 1.7 1 2.5 1.4 4.5 1.7.8.2 1.6.2 2.4.2.5 0 1 .1 1.5.1 1.2 0 2.5-.4 3.6-.8.9-.3 3.2-1.9 3.2-2.9v-.2c0-1.1-1-2.2-2.2-2.2-1.2 0-1.2-.1-2.4-.1h-2.4c-1.2 0-1.2.2-2.4.2-2.3 0-3.2-1.2-3.2-3.3.2-2.2.9-3.3 3.2-3.3 1.2 0 1.2-.1 2.5-.1s1.2.1 2.5.1c1.2 0 1.2.1 2.5.1s1.2.1 2.5.1 1.2-.1 2.5-.1c1.8 0 3.3 1.4 3.3 3.2 0 1.3-.1 1.3-.1 2.7 0 1.4-.1 1.4-.1 2.7 0 1.4-.1 1.4-.1 2.7 0 .9-.2 1.7-.8 2.3l-.1-.1c-.6.6-1.1 1.4-1.8 1.9s-1.6.7-2.4 1.1c-.8.4-1.3 1.1-2.2 1.5-.8.3-1.7.3-2.6.5-1.7.5-3.2.9-5.1.9-.8 0-1.6-.2-2.4-.3-3.5-.5-6-1-9-3.2-.6-.5-1.1-1.1-1.7-1.7-1.7-1.6-3.8-3.9-4.6-6.2-.7-1.8-1.1-5.8-1.1-7.7 0-.9-.2-1.7-.1-2.5.1-.9.3-1.7.5-2.5.2-.9.8-1.6 1.1-2.4.3-.8.5-1.7.9-2.4 1-1.7 3.7-4.5 5.1-5.6.9-.7 5.2-2.8 6.5-3.1 1.6-.3 3.2-.5 4.8-.5.9 0 1.7.2 2.6.3s1.7.5 2.5.7c.9.2 1.8.3 2.6.6 2.7 1.1 4.5 2.3 6.4 4.5 0 0 .9 1.5.9 2.4s-.4 1.7-1 2.4c0 0-1.5.9-2.4.9-.9-.1-2.3-1.1-2.3-1.1-.6-.6-1.3-1-2-1.5-1.8-1.1-3.8-2.1-6-2.1-1-.5-2-.4-3.2-.1zM387.3 394.8c-1.7 0-3.5-1.8-3.5-3.5 0-1.2.2-1.2.2-2.4s-.2-1.2-.2-2.4.1-1.2.1-2.4.2-1.2.2-2.4-.2-1.2-.2-2.4.3-1.2.3-2.4-.1-1.2-.1-2.4v-2.4c0-1.2-.1-1.2-.1-2.4s.1-1.2.1-2.4-.3-1.2-.3-2.4.1-1.2.1-2.4v-2.4c0-1.9 1.2-3.5 3.2-3.5h10.4c1.3 0 1.3.1 2.6.1s1.3-.1 2.6-.1c1.8 0 3.3 1.7 3.3 3.5s-1.6 3.3-3.3 3.3c-1.3 0-1.3-.2-2.6-.2s-1.3.4-2.6.4-1.3-.1-2.6-.1-1.3-.3-2.6-.3c-1.1 0-1.9 1-1.9 2.2 0 1 .1 1 .1 1.9 0 1-.3 1-.3 1.9 0 1.1 1.1 1.9 2.2 1.9 1.2 0 1.2.2 2.5.2 1.2 0 1.2-.1 2.5-.1s1.2.1 2.5.1c.9 0 1.7.4 2.3 1 .6.6.9 2.3.9 2.3 0 1.5-1.6 3.5-3.2 3.5-1.2 0-1.2-.2-2.5-.2s-1.2-.1-2.5-.1c-1.2 0-1.2.1-2.5.1-1.1 0-2.2.9-2.2 2 0 1.5.1 1.5.1 2.9s.2 1.5.2 2.9c0 1.1.8 2.1 1.9 2.1 1.3 0 1.3.1 2.6.1s1.3-.2 2.6-.2 1.3.1 2.6.1 1.3.2 2.6.2c2.2 0 3.3.9 3.3 3.2-.4 2-1.1 3.2-3.3 3.2-1.3 0-1.3.1-2.6.1s-1.3-.2-2.6-.2-1.3.3-2.6.3-1.3-.1-2.6-.1-1.3-.2-2.6-.2h-2.5z"/></g><g><path fill="#A10000" d="M135.5 216.3V203c.1-.2.2-.5.2-.7.5-4.1.8-8.3 1.5-12.4 3.7-20.8 12.4-39.3 26.3-55.1 20.4-23.2 46.1-36.4 76.9-39.3 1-.1 2-.3 3-.4H256c.2.1.4.2.6.2 6.9.4 13.7 1.4 20.4 3 47.6 11.5 82.9 52.8 87 101.7.1 1.2.3 2.3.4 3.5v12.9c-.1.2-.2.4-.2.6-.8 5.6-1.2 11.2-2.4 16.7-5.2 24.1-17.1 44.5-35.4 60.9-19 17.1-41.4 26.8-67 29.1-1.1.1-2.3.3-3.4.4h-12.4c-.3-.1-.5-.2-.8-.2-7.3-.5-14.4-1.6-21.5-3.4-17.9-4.7-33.8-13.1-47.5-25.5-22.4-20.3-35.1-45.5-38-75.6 0-1.2-.2-2.2-.3-3.1zm88.3 16H276c4.5-15.2 4.7-30.4 1.3-45.7h-53.4c-3.2 15.3-3.2 30.5-.1 45.7zm115.5.1c.1-.2.2-.4.2-.6 1.9-5.9 2.8-11.9 3.1-18 .5-8.9-.4-17.6-3-26.1-.2-.8-.6-1.1-1.4-1.1h-38c1 15.3 2.2 30.5.1 45.8h39zm-138.4 0c-1-15.3-2.3-30.5-.1-45.6-.2-.1-.2-.1-.3-.1h-38c-.3 0-.7.4-.8.7-1.5 4.3-2.3 8.8-2.8 13.3-.7 6.6-.7 13.1.3 19.7.6 4.1 1.6 8.1 2.4 12.1 13.2-.1 26.1-.1 39.3-.1zM250 117.9c-9.4 14.3-17 29.4-21.7 45.8h43.5c-4.5-16.6-12.3-31.5-21.8-45.8zm0 183.2c9.4-14.3 16.9-29.3 21.7-45.7h-43.4c1.9 10.5 13 33.8 21.7 45.7zm79-137.4c-11.1-20.1-28.3-32.7-49.3-41.3 6.7 13.4 12.8 26.8 16.1 41.3H329zM219.9 296.4c-3-6.7-6.1-13.3-9-20.1-2.9-6.8-5.1-13.8-6.8-20.9H171c8.8 17.3 27.1 32.6 48.9 41zm59.8.2c21.1-8.5 38.2-21.1 49.3-41.2h-33.2c-3.4 14.4-8.9 27.9-16.1 41.2zM171 163.7h33.2c3.2-14.5 9.3-27.8 16-41.2-21 8.3-37.6 21.7-49.2 41.2z"/></g></svg>