<svg xmlns="http://www.w3.org/2000/svg" viewBox="0 0 570 290"><path d="M566 35c-.6 1.4-1.1 2.7-1.7 4.1-3.9 9.8-11 15.7-21.5 17.1-2.3.3-4.6.4-7 .4H36.1c-16.3 0-24.2-5.6-29.5-20.8-.1-.3-.4-.6-.6-.8v-9C9.1 14.5 16.5 7.2 28 4h516c11.5 3.2 18.9 10.5 22 22v9zM6 257c.6-1.5 1.2-3 1.9-4.5 4-9.5 11-15.2 21.3-16.6 2.3-.3 4.6-.4 7-.4h499.7c16.3 0 24.2 5.6 29.5 20.8.1.3.4.5.6.7v9c-3.1 11.5-10.5 18.8-22 22H28c-11.5-3.2-18.9-10.5-22-22v-9zM6 141c1.2-2.7 2.2-5.5 3.7-8 5-8.3 12.4-12.9 22.2-13 10.3-.1 20.7 0 31 0 156.4 0 312.8.2 469.2-.2 16.7 0 28.4 4.9 33.9 21.3v10c-1.2 2.7-2.2 5.5-3.7 8-5 8.3-12.4 12.9-22.2 13-12.3.1-24.7 0-37 0-154.4 0-308.8-.2-463.2.2-16.7 0-28.4-4.9-33.9-21.3v-10z"/></svg>