<svg xmlns="http://www.w3.org/2000/svg" xmlns:xlink="http://www.w3.org/1999/xlink" viewBox="0 0 500 500"><defs><path id="a" d="M0 0h500v500H0z"/></defs><clipPath id="b"><use xlink:href="#a" overflow="visible"/></clipPath><path clip-path="url(#b)" fill="#FFF" d="M493.5 250c0 133.4-108.1 241.5-241.5 241.5S10.5 383.4 10.5 250 118.6 8.5 252 8.5 493.5 116.6 493.5 250"/><circle clip-path="url(#b)" fill="none" stroke="#A10000" stroke-width="16" stroke-miterlimit="10" cx="252" cy="250" r="241.5"/><g fill="gold"><path d="M240.6 139.7c-9.7-5.2-13.2-15.7-10.5-24.7 2.6-8.7 10.9-14.7 20-14.7s17.3 6.2 19.9 14.8c2.7 9.1-1 19.5-10.5 24.6l42.6 85.5c15.5-12.9 31-25.8 46.4-38.7-8.3-10.3-4.6-22.8 1.9-28.7 6.9-6.3 17.5-7.3 25.5-2.1 8 5.2 11.4 15.3 8.2 24.4-3 8.4-11.6 15.4-23.8 13.5-5.8 27.8-11.7 55.7-17.6 83.5H157.3c-5.8-27.8-11.7-55.7-17.5-83.5-13.5 2.1-22.2-6.9-24.4-15.1-2.5-9.2 1.7-19 10.2-23.7 8.3-4.6 18.8-2.8 25.3 4.2 6.4 7 7.9 18.5.6 27.5 15.5 12.9 30.9 25.8 46.5 38.7l42.6-85.5zM156.4 298.2h187.2c0 .1.1.1.1.2 0 5.4.1 10.9-.1 16.3-.2 7-5.8 13.2-12.7 14.4-1.1.2-2.2.3-3.2.3H172.4c-7.7 0-13.9-4.8-15.6-12.3-.2-1.1-.4-2.2-.4-3.3v-15c-.1-.3 0-.4 0-.6z"/></g><g><path d="M146.7 368.2c6.7 0 11.7 4.7 11.7 11.4s-5.1 11.4-11.7 11.4H143c-1.2 0-2.1.9-2.1 2.1v10.2c0 1.9-1.5 3.4-3.4 3.4s-3.4-1.5-3.4-3.4v-31.7c0-1.9 1.5-3.4 3.4-3.4h9.2zm-5.9 13.9c0 1.2.9 2.1 2.1 2.1h3.7c.8 0 4.9-.2 4.9-4.6s-4.1-4.6-4.9-4.6h-3.7c-1.2 0-2.1.9-2.1 2.1v5zM187.3 388.1c-.8.7-1.8 1.3-2.8 1.8-.4.2-.5.7-.3 1l6.5 10.7c1.4 2.3-.2 5.1-2.9 5.1-1.2 0-2.3-.6-2.9-1.6l-7.9-13c-.4-.7-1.2-1.1-1.9-1.1-1 0-1.8.8-1.8 1.8v10.6c0 1.9-1.5 3.4-3.4 3.4s-3.4-1.5-3.4-3.4v-31.7c0-1.9 1.5-3.4 3.4-3.4h9.2c6.6 0 11.7 4.7 11.7 11.4 0 3.4-1.3 6.3-3.6 8.5l.1-.1zm-14-6c0 1.2.9 2.1 2.1 2.1h3.7c.8 0 4.9-.2 4.9-4.6s-4.1-4.6-4.9-4.6h-3.7c-1.2 0-2.1.9-2.1 2.1v5zM203 406.7c-1.9 0-3.6-1.4-3.6-3.3v-31.7c0-1.9 1.5-3.4 3.4-3.4h15.9c1.9 0 3.4 1.5 3.4 3.4s-1.5 3.4-3.4 3.4h-10.5c-1.2 0-2.1.9-2.1 2.1v4c0 1.2.9 2.1 2.1 2.1h7.5c1.9 0 3.4 1.5 3.4 3.4s-1.5 3.4-3.4 3.4h-7.5c-1.2 0-2.1.9-2.1 2.1v6c0 1.2.9 2.1 2.1 2.1h10.5c1.9 0 3.4 1.5 3.4 3.4s-1.5 3.4-3.4 3.4H203zM247.9 382c.2.2.4.2.6.2.2 0 .4-.1.6-.2l11.8-12.6c.7-.7 1.5-1 2.5-1 1.9 0 3.4 1.5 3.4 3.4v31.7c0 1.9-1.5 3.4-3.4 3.4s-3.4-1.5-3.4-3.4v-21.3c0-.4-.3-.7-.7-.7-.2 0-.3.1-.5.2l-8.7 9.3c-.4.4-.9.7-1.5.7s-1.1-.2-1.5-.7l-8.7-9.3c-.2-.2-.3-.2-.5-.2-.4 0-.7.3-.7.7v21.3c0 1.9-1.5 3.4-3.4 3.4s-3.4-1.5-3.4-3.4v-31.7c0-1.9 1.5-3.4 3.4-3.4.9 0 1.9.3 2.5 1l11.6 12.6zM275.1 403.4v-31.7c0-1.9 1.5-3.4 3.4-3.4s3.4 1.5 3.4 3.4v31.7c0 1.9-1.5 3.4-3.4 3.4-1.8-.1-3.4-1.6-3.4-3.4zM313.6 371.6c0-1.9 1.5-3.4 3.4-3.4s3.4 1.5 3.4 3.4v21c0 7.8-6.3 14.1-14.1 14.1h-1.9c-7.8 0-14.1-6.3-14.1-14.1v-21c0-1.9 1.5-3.4 3.4-3.4s3.4 1.5 3.4 3.4v21c0 4.1 3.3 7.4 7.4 7.4h1.9c4.1 0 7.4-3.3 7.4-7.4l-.2-21zM346.1 382c.2.2.4.2.6.2.2 0 .4-.1.6-.2l11.8-12.6c.7-.7 1.5-1 2.5-1 1.9 0 3.4 1.5 3.4 3.4v31.7c0 1.9-1.5 3.4-3.4 3.4s-3.4-1.5-3.4-3.4v-21.3c0-.4-.3-.7-.7-.7-.2 0-.3.1-.5.2l-8.7 9.3c-.4.4-.9.7-1.5.7s-1.1-.2-1.5-.7l-8.7-9.3c-.2-.2-.3-.2-.5-.2-.4 0-.7.3-.7.7v21.3c0 1.9-1.5 3.4-3.4 3.4s-3.4-1.5-3.4-3.4v-31.7c0-1.9 1.5-3.4 3.4-3.4.9 0 1.9.3 2.5 1l11.6 12.6z"/></g></svg>