<svg xmlns="http://www.w3.org/2000/svg" xmlns:xlink="http://www.w3.org/1999/xlink" viewBox="0 0 500 500"><defs><path id="a" d="M0 0h500v500H0z"/></defs><clipPath id="b"><use xlink:href="#a" overflow="visible"/></clipPath><path clip-path="url(#b)" fill="#FFF" d="M493.5 250c0 133.4-108.1 241.5-241.5 241.5S10.5 383.4 10.5 250 118.6 8.5 252 8.5 493.5 116.6 493.5 250"/><circle clip-path="url(#b)" fill="none" stroke="#A10000" stroke-width="9" stroke-miterlimit="10" cx="252" cy="250" r="241.5"/><path fill="#FF5B62" d="M252.4 96.9c62.3 0 112.9 50.5 112.9 112.9 0 62.3-50.5 112.9-112.9 112.9-62.3 0-112.9-50.5-112.9-112.9 0-62.4 50.5-112.9 112.9-112.9z"/><path fill="#FAD24D" d="M252.3 141.2l-15 81.1-34.3-76.1 4.1 83-36.7-62.2 21.9 104.3c7.5 0 41.7-6 60-5.9 31.5.2 59.5 3 60 5.9l22-104.3-36.7 62.2 4.1-83-34.3 76.1-15.1-81.1z"/><g fill="#EDB937"><path d="M306.3 267.2c2.9.6 6 2 6.2 3.2l18.7-89-24.9 85.8z"/><ellipse cx="252.3" cy="271.2" rx="60" ry="8.1"/></g><circle fill="#FAD24D" cx="170.3" cy="167" r="5.4"/><path fill="#FFD95E" d="M173.9 162.9c.4.8.6 1.6.6 2.6 0 3-2.4 5.4-5.4 5.4-1.4 0-2.6-.5-3.5-1.3-.4-.8-.6-1.6-.6-2.6 0-3 2.4-5.4 5.4-5.4 1.3 0 2.5.5 3.5 1.3z"/><circle fill="#FAD24D" cx="203" cy="146.2" r="5.8"/><path fill="#FFD95E" d="M206.8 141.9c.4.8.7 1.8.7 2.7 0 3.2-2.6 5.8-5.8 5.8-1.5 0-2.8-.5-3.8-1.4-.4-.8-.7-1.8-.7-2.7 0-3.2 2.6-5.8 5.8-5.8 1.5-.1 2.8.5 3.8 1.4z"/><circle fill="#FAD24D" cx="252.3" cy="141.2" r="7.2"/><path fill="#FFD95E" d="M257 135.8c.5 1 .9 2.2.9 3.4 0 4-3.2 7.2-7.2 7.2-1.8 0-3.5-.7-4.7-1.8-.5-1-.9-2.2-.9-3.4 0-4 3.2-7.2 7.2-7.2 1.8 0 3.5.7 4.7 1.8z"/><circle fill="#FAD24D" cx="301.6" cy="146.2" r="5.8"/><path fill="#FFD95E" d="M305.4 141.9c.4.8.7 1.8.7 2.7 0 3.2-2.6 5.8-5.8 5.8-1.5 0-2.8-.5-3.8-1.4-.4-.8-.7-1.8-.7-2.7 0-3.2 2.6-5.8 5.8-5.8 1.5-.1 2.8.5 3.8 1.4z"/><circle fill="#FAD24D" cx="334.1" cy="167.6" r="5.4"/><path fill="#FFD95E" d="M337.7 163.5c.4.8.6 1.6.6 2.6 0 3-2.4 5.4-5.4 5.4-1.4 0-2.6-.5-3.5-1.3-.4-.8-.6-1.6-.6-2.6 0-3 2.4-5.4 5.4-5.4 1.3 0 2.5.5 3.5 1.3z"/><g><path d="M149.7 351.3c6.8 0 11.9 4.8 11.9 11.6s-5.2 11.6-11.9 11.6h-3.8c-1.2 0-2.1 1-2.1 2.1V387c0 1.9-1.5 3.4-3.4 3.4s-3.4-1.6-3.4-3.5v-32.3c0-1.9 1.6-3.5 3.5-3.5h9.2zm-6 14.2c0 1.2 1 2.1 2.1 2.1h3.8c.8 0 5-.2 5-4.7s-4.2-4.7-5-4.7h-3.8c-1.2 0-2.1 1-2.1 2.1v5.2zM191 371.6c-.8.7-1.8 1.3-2.8 1.8-.4.2-.6.7-.3 1.1l6.7 10.9c1.4 2.3-.2 5.2-2.9 5.2-1.2 0-2.3-.6-2.9-1.6l-8.1-13.2c-.4-.7-1.2-1.1-2-1.1-1 0-1.8.8-1.8 1.8v10.8c0 1.9-1.5 3.4-3.4 3.4s-3.4-1.6-3.4-3.5v-32.3c0-1.9 1.6-3.5 3.5-3.5h9.4c6.7 0 11.9 4.8 11.9 11.6 0 3.5-1.3 6.4-3.7 8.6h-.2zm-14.2-6.1c0 1.2 1 2.1 2.1 2.1h3.8c.8 0 5-.2 5-4.7s-4.2-4.7-5-4.7H179c-1.2 0-2.1 1-2.1 2.1v5.2zM207 390.5c-1.9 0-3.6-1.5-3.6-3.4v-32.3c0-1.9 1.6-3.5 3.5-3.5h16.2c1.9 0 3.5 1.5 3.5 3.4s-1.5 3.4-3.4 3.4h-10.7c-1.2 0-2.1 1-2.1 2.1v4c0 1.2 1 2.1 2.1 2.1h7.7c1.9 0 3.5 1.5 3.5 3.4s-1.5 3.4-3.4 3.4h-7.7c-1.2 0-2.1 1-2.1 2.1v6.1c0 1.2 1 2.1 2.1 2.1h10.7c1.9 0 3.5 1.5 3.5 3.4s-1.5 3.4-3.4 3.4H207zM252.8 365.4c.2.2.4.2.6.2.2 0 .4-.1.6-.2l12-12.8c.7-.7 1.6-1.1 2.5-1.1 1.9 0 3.5 1.5 3.5 3.4v32.3c0 1.9-1.5 3.4-3.4 3.4s-3.4-1.6-3.4-3.5v-21.7c0-.4-.3-.7-.7-.7-.2 0-.3.1-.5.2l-8.8 9.5c-.4.4-1 .7-1.5.7-.6 0-1.1-.2-1.6-.7l-8.8-9.5c-.2-.2-.3-.2-.5-.2-.4 0-.7.3-.7.7v21.7c0 1.9-1.5 3.4-3.4 3.4s-3.4-1.6-3.4-3.5v-32.3c0-1.9 1.6-3.5 3.5-3.5 1 0 1.9.3 2.5 1.1l11.5 13.1zM280.5 387.2v-32.3c0-1.9 1.6-3.5 3.5-3.5s3.5 1.5 3.5 3.4v32.3c0 1.9-1.5 3.4-3.4 3.4-2 0-3.6-1.4-3.6-3.3zM319.6 354.8c0-1.9 1.6-3.5 3.5-3.5s3.5 1.5 3.5 3.4v21.4c0 8-6.4 14.4-14.4 14.4h-2c-8 0-14.4-6.4-14.4-14.4v-21.4c0-1.9 1.6-3.5 3.5-3.5s3.5 1.5 3.5 3.4V376c0 4.1 3.4 7.5 7.5 7.5h2c4.1 0 7.5-3.4 7.5-7.5l-.2-21.2zM352.7 365.4c.2.2.4.2.6.2.2 0 .4-.1.6-.2l12-12.8c.7-.7 1.6-1.1 2.5-1.1 1.9 0 3.5 1.5 3.5 3.4v32.3c0 1.9-1.5 3.4-3.4 3.4s-3.4-1.6-3.4-3.5v-21.7c0-.4-.3-.7-.7-.7-.2 0-.3.1-.5.2l-8.8 9.5c-.4.4-1 .7-1.5.7-.6 0-1.1-.2-1.6-.7l-8.8-9.5c-.2-.2-.3-.2-.5-.2-.4 0-.7.3-.7.7v21.7c0 1.9-1.5 3.4-3.4 3.4s-3.4-1.6-3.4-3.5v-32.3c0-1.9 1.6-3.5 3.5-3.5 1 0 1.9.3 2.5 1.1l11.5 13.1z"/></g></svg>