<svg version="1.1" id="Слой_1" xmlns="http://www.w3.org/2000/svg" x="0" y="0" viewBox="0 0 500 500" xml:space="preserve"><style>.st4{fill:#fad24d}.st5{fill:#edb937}.st6{fill:#ffd95e}</style><circle cx="252" cy="250" r="241.5" fill="#fff" stroke="#a10000" stroke-width="10" stroke-miterlimit="10"/><text transform="translate(137 404)" font-size="48" font-family="Audrey-Bold">PREMIUM</text><path d="M247.67 92.33c70.32 0 127.33 57.01 127.33 127.33C375 289.99 317.99 347 247.67 347s-127.33-57.01-127.33-127.33c-.01-70.33 57-127.34 127.33-127.34z" fill="#ff5b62"/><path class="st4" d="M247.6 142.37l-16.94 91.42L192.01 148l4.6 93.58-41.43-70.16 24.75 117.6c8.5 0 47.04-6.74 67.7-6.61 35.49.22 67.08 3.34 67.68 6.61l24.77-117.6-41.43 70.16 4.6-93.58-38.68 85.88-16.97-91.51z"/><path class="st5" d="M308.49 284.4c3.29.67 6.8 2.21 7.01 3.64l21.13-100.33-28.14 96.69z"/><ellipse class="st5" cx="247.62" cy="288.93" rx="67.69" ry="9.13"/><circle class="st4" cx="155.18" cy="171.41" r="6.07"/><path class="st6" d="M159.17 166.84c.46.86.73 1.84.73 2.88a6.073 6.073 0 01-10.06 4.58c-.46-.86-.73-1.84-.73-2.88 0-3.35 2.72-6.07 6.07-6.07a6 6 0 013.99 1.49z"/><circle class="st4" cx="192.01" cy="148" r="6.53"/><path class="st6" d="M196.3 143.07c.5.92.78 1.98.78 3.1a6.525 6.525 0 01-10.82 4.92 6.48 6.48 0 01-.78-3.1c0-3.61 2.92-6.53 6.53-6.53 1.64.01 3.14.61 4.29 1.61z"/><circle class="st4" cx="247.6" cy="142.36" r="8.13"/><path class="st6" d="M252.94 136.23c.62 1.15.97 2.46.97 3.86a8.13 8.13 0 01-8.13 8.13c-2.04 0-3.91-.75-5.34-2a8.095 8.095 0 01-.97-3.86 8.13 8.13 0 018.13-8.13c2.04.01 3.91.76 5.34 2z"/><circle class="st4" cx="303.24" cy="148" r="6.53"/><path class="st6" d="M307.53 143.07c.5.92.78 1.98.78 3.1a6.525 6.525 0 01-10.82 4.92 6.48 6.48 0 01-.78-3.1c0-3.61 2.92-6.53 6.53-6.53 1.64.01 3.14.61 4.29 1.61z"/><circle class="st4" cx="339.93" cy="172.07" r="6.07"/><path class="st6" d="M343.92 167.5c.46.86.73 1.84.73 2.88a6.073 6.073 0 01-10.06 4.58c-.46-.86-.73-1.84-.73-2.88 0-3.35 2.72-6.07 6.07-6.07a6 6 0 013.99 1.49z"/></svg>