<?xml version="1.0" encoding="utf-8"?>
<!-- Generator: Adobe Illustrator 19.1.0, SVG Export Plug-In . SVG Version: 6.00 Build 0)  -->
<svg version="1.1" id="Layer_1" xmlns="http://www.w3.org/2000/svg" xmlns:xlink="http://www.w3.org/1999/xlink" x="0px" y="0px"
	 viewBox="0 0 64 64" enable-background="new 0 0 64 64" xml:space="preserve">
<g id="US-Coins">
	<path d="M14.0059004,20.7665501c0-0.5683002-0.46-1.0282993-1.0283995-1.0282993
		c-0.5683002,0-1.0283003,0.4599991-1.0283003,1.0282993c0,1.3719006,0.9068995,2.9862003,5.0234995,3.2106991v2.0003014
		c0,0.5546989,0.450201,1.0049,1.0048008,1.0049c0.5546989,0,1.0049-0.450201,1.0049-1.0049v-2.014101
		c4.5084991-0.3823986,5.0234985-3.3452988,5.0234985-4.6695004c0-1.9965-0.9068871-4.3448992-5.0234985-4.671299v-4.5609999
		c1.5206985,0.1631994,2.1243992,0.6819,2.1357994,1.0574999c-0.0370998,0.5467997,0.3633003,1.0302,0.9120998,1.0917997
		c0.5653992,0.0527,1.0732002-0.3448,1.136713-0.9082003c0.0185871-0.1700001,0.0741863-1.0576992-0.6904125-1.9120998
		c-0.7140007-0.7978001-1.8910999-1.2621994-3.4941998-1.3962998V5.97755c0-0.5546999-0.450201-1.0049-1.0049-1.0049
		c-0.5545998,0-1.0048008,0.4502001-1.0048008,1.0049v2.0191998c-3.4481993,0.2316999-5.0234995,1.6878004-5.0234995,4.6662998
		c0,3.2912006,3.1069994,3.8556995,5.0234995,3.953001v5.2987995C15.1671,21.7983494,14.0059004,21.3677502,14.0059004,20.7665501z
		 M21.9491997,19.2939491c0,0.5947018-0.0105,2.2873001-2.9667988,2.6004009v-5.2166004
		C21.0736008,16.8552494,21.9491997,17.64995,21.9491997,19.2939491z M14.0059004,12.6630497
		c0-1.1841002,0.0105-2.4007998,2.9667997-2.6191998v4.5025997C14.0164003,14.3490496,14.0059004,13.2701502,14.0059004,12.6630497z
		"/>
	<path d="M17.9775009,31.9775505c8.8365993,0,16-7.1634998,16-16c0-8.8365993-7.1634007-16-16-16c-8.8364887,0-16,7.1634002-16,16
		C1.9775008,24.8140507,9.1410122,31.9775505,17.9775009,31.9775505z M17.9775009,1.97755c7.7196999,0,14,6.2802997,14,14
		c0,7.7195997-6.2803001,14.000001-14,14.000001c-7.7196007,0-14-6.2804012-14-14.000001
		C3.9775007,8.2578497,10.2579002,1.97755,17.9775009,1.97755z"/>
	<path d="M29.9775009,35.9325485h-24c-1.1268997,0-2.0448997,0.9180031-2.0448997,2.045002v4
		c0,1.1268997,0.918,2.044899,2.0448997,2.044899h24c1.1269989,0,2.0449982-0.9179993,2.0449982-2.044899v-4
		C32.0224991,36.8505516,31.1044998,35.9325485,29.9775009,35.9325485z M6.0225005,41.9775505l-0.0450001-3.955101h23.9560986
		l0.0439014,3.910099L6.0225005,41.9775505z"/>
	<path d="M29.9775009,45.9325485h-24c-1.1268997,0-2.0448997,0.9180031-2.0448997,2.045002v4
		c0,1.1268997,0.918,2.044899,2.0448997,2.044899h24c1.1269989,0,2.0449982-0.9179993,2.0449982-2.044899v-4
		C32.0224991,46.8505516,31.1044998,45.9325485,29.9775009,45.9325485z M6.0225005,51.9775505l-0.0450001-3.955101h23.9560986
		l0.0439014,3.910099L6.0225005,51.9775505z"/>
	<path d="M29.9775009,55.9325485h-24c-1.1268997,0-2.0448997,0.9180031-2.0448997,2.045002v4
		c0,1.1268997,0.918,2.0449028,2.0448997,2.0449028h24c1.1269989,0,2.0449982-0.9180031,2.0449982-2.0449028v-4
		C32.0224991,56.8505516,31.1044998,55.9325485,29.9775009,55.9325485z M6.0225005,61.9775505l-0.0450001-3.955101h23.9560986
		l0.0439014,3.910099L6.0225005,61.9775505z"/>
	<path d="M59.9775009,45.9325485h-24c-1.1268997,0-2.0449028,0.9180031-2.0449028,2.045002v4
		c0,1.1268997,0.9180031,2.044899,2.0449028,2.044899h24c1.1269989,0,2.0449982-0.9179993,2.0449982-2.044899v-4
		C62.0224991,46.8505516,61.1044998,45.9325485,59.9775009,45.9325485z M36.0224991,51.9775505l-0.0449982-3.955101h23.9560966
		l0.0439034,3.910099L36.0224991,51.9775505z"/>
	<path d="M59.9775009,55.9325485h-24c-1.1268997,0-2.0449028,0.9180031-2.0449028,2.045002v4
		c0,1.1268997,0.9180031,2.0449028,2.0449028,2.0449028h24c1.1269989,0,2.0449982-0.9180031,2.0449982-2.0449028v-4
		C62.0224991,56.8505516,61.1044998,55.9325485,59.9775009,55.9325485z M36.0224991,61.9775505l-0.0449982-3.955101h23.9560966
		l0.0439034,3.910099L36.0224991,61.9775505z"/>
</g>
</svg>
