<svg opacity=".9" xmlns="http://www.w3.org/2000/svg" viewBox="0 0 480 480"><path d="M480.52 480.52H.57V.57h479.95v479.95zM59.08 248.09c.79-.53 1.4-.92 2-1.33 58.41-40.37 116.81-80.76 175.24-121.1 4.56-3.15 2.8-3.15 7.34-.01 52.08 35.96 104.14 71.96 156.2 107.95 6.98 4.83 13.97 9.65 21.04 14.53 15.2-23.1 30.27-45.99 45.4-68.97-.68-.49-1.25-.93-1.84-1.34-74-51.52-148.01-103.02-221.98-154.59-1.88-1.31-3.06-1.33-4.95-.01-65.47 45.65-130.99 91.24-196.51 136.83-9.08 6.32-18.17 12.65-27.36 19.05 15.16 23.02 30.23 45.91 45.42 68.99zm0 180.79c1.2-.81 2.11-1.4 3.01-2.01 58.34-40.33 116.7-80.64 174.99-121.03 2.23-1.54 3.64-1.52 5.87.02 57.77 40.04 115.6 80 173.42 119.96 1.46 1.01 2.95 1.97 4.57 3.04 15.2-22.81 30.25-45.39 45.4-68.13C390.83 307.89 315.41 255.12 240 202.35c-75.56 52.87-150.91 105.6-226.34 158.38 15.17 22.76 30.22 45.34 45.42 68.15z" fill="none"/><path d="M59.08 248.09c-15.19-23.07-30.26-45.96-45.41-68.99 9.19-6.4 18.27-12.73 27.36-19.05 65.51-45.6 131.03-91.18 196.51-136.83 1.89-1.32 3.07-1.3 4.95.01C316.46 74.8 390.47 126.3 464.47 177.82c.59.41 1.16.84 1.84 1.34-15.13 22.98-30.2 45.87-45.4 68.97-7.07-4.88-14.06-9.71-21.04-14.53-52.06-35.99-104.11-71.99-156.2-107.95-4.54-3.14-2.78-3.14-7.34.01C177.9 166 119.5 206.39 61.09 246.76c-.61.4-1.22.8-2.01 1.33z"/><path d="M59.08 428.88c-15.2-22.81-30.25-45.39-45.42-68.16C89.08 307.95 164.44 255.22 240 202.35c75.41 52.77 150.83 105.54 226.34 158.38-15.16 22.74-30.2 45.32-45.4 68.13-1.62-1.07-3.11-2.03-4.57-3.04-57.82-39.97-115.65-79.92-173.42-119.96-2.22-1.54-3.64-1.56-5.87-.02-58.3 40.4-116.65 80.71-174.99 121.03-.9.62-1.8 1.21-3.01 2.01z"/></svg>