<svg xmlns="http://www.w3.org/2000/svg" viewBox="0 0 500 573"><path d="M1.47 1.56h499.36V574.2H1.47V1.56zm422.96 403.58c0-83.44.05-165.95-.17-248.46-.01-3.39-1.58-7.67-3.94-10.03-37.46-37.55-75.12-74.9-112.93-112.1-2.11-2.08-5.88-3.5-8.88-3.51-76.15-.19-152.3-.19-228.45-.11-17.56.01-30.2 12.81-30.42 30.21-.07 5.57-.55 11.15-.53 16.72.14 42.2.48 84.41.52 126.61.09 90.1.03 180.19.03 270.29 0 20.28 11.79 32.13 31.97 32.13 87.41 0 174.83 0 262.24.01 3.24 0 6.42-.79 8.44 3.5 19.48 41.3 74.67 56.06 113.78 25.27 29.15-22.95 35.87-65.03 17.47-95.11-11.35-18.56-27.84-30.09-49.13-35.42z" fill="none"/><path d="M424.43 405.14c21.28 5.33 37.78 16.86 49.13 35.42 18.4 30.07 11.68 72.15-17.47 95.11-39.11 30.79-94.3 16.03-113.78-25.27-2.02-4.29-5.2-3.5-8.44-3.5-87.41-.02-174.83-.01-262.24-.01-20.18 0-31.97-11.85-31.97-32.13 0-90.1.06-180.19-.03-270.29-.04-42.2-.38-84.41-.52-126.61-.02-5.57.46-11.14.53-16.72.21-17.39 12.86-30.2 30.42-30.22 76.15-.08 152.3-.08 228.45.11 3 .01 6.77 1.43 8.88 3.51 37.81 37.2 75.47 74.55 112.93 112.1 2.35 2.36 3.93 6.64 3.94 10.03.22 82.52.17 165.03.17 248.47zM80.29 466.35h254.56c5.54-26.81 20.48-45.73 45.13-57.12 1.91-.88 3.36-4.9 3.37-7.47.18-76.64.15-153.27.13-229.91 0-2.12-.21-4.24-.35-6.86h-94.75V72.44H80.3c-.01 131.27-.01 262.21-.01 393.91zm338.58 22.59c6.97 0 12.82-.09 18.67.03 6.25.13 9.67-2.79 9.99-9.03.32-6.21-3.07-9.55-10.04-9.75-6.03-.17-12.06-.04-18.64-.04 0-6.37-.13-11.93.03-17.49.19-6.35-1.97-10.43-9-10.53-7.08-.1-9.59 2.42-9.85 10.52-.18 5.73-.04 11.46-.04 17.5-6.86 0-12.71-.13-18.54.03-6.78.2-10.07 3.64-9.81 9.97.26 6.47 3.99 8.93 10.09 8.83 6.01-.1 12.03-.02 18.36-.02v9.64c0 2.93-.11 5.87.04 8.79.35 7.1 3.41 10.14 9.89 9.83 6.31-.3 9.07-3.73 8.88-10-.16-5.81-.03-11.63-.03-18.28z" fill="#840402"/><path d="M80.29 466.35V72.44h208.08v92.55h94.75c.14 2.62.35 4.74.35 6.86.02 76.64.05 153.27-.13 229.91-.01 2.57-1.46 6.59-3.37 7.47-24.65 11.4-39.6 30.31-45.13 57.12H80.29zm265.78-252.5H117.89v22.54h228.18v-22.54zm-.42 167.86H118.07v22h227.58v-22zm-227.78-89.79h227.79v-21.81H117.87v21.81zm.1 33.95v21.9h227.35v-21.9H117.97zm-.34-173.34h108.68V124.8H117.63v27.73z" fill="#fcfcfc"/><path d="M418.87 488.94c0 6.65-.14 12.47.04 18.28.19 6.26-2.57 9.69-8.88 10-6.48.31-9.54-2.72-9.89-9.83-.14-2.92-.03-5.86-.04-8.79v-9.64c-6.33 0-12.35-.08-18.36.02-6.1.1-9.83-2.36-10.09-8.83-.25-6.33 3.03-9.77 9.81-9.97 5.83-.17 11.68-.03 18.54-.03 0-6.04-.15-11.77.04-17.5.26-8.1 2.76-10.62 9.85-10.52 7.03.1 9.19 4.18 9 10.53-.17 5.56-.03 11.13-.03 17.49 6.58 0 12.62-.14 18.64.04 6.97.2 10.36 3.54 10.04 9.75-.32 6.24-3.74 9.16-9.99 9.03-5.85-.12-11.71-.03-18.68-.03z" fill="#faf7f7"/><path d="M346.07 213.85v22.54H117.89v-22.54h228.18z" fill="#850806"/><path d="M345.65 381.71v22H118.07v-22h227.58z" fill="#840907"/><path d="M117.87 291.92v-21.81h227.79v21.81H117.87z" fill="#830200"/><path d="M117.97 325.87h227.35v21.9H117.97v-21.9z" fill="#830301"/><path d="M117.63 152.53V124.8h108.68v27.73H117.63z" fill="#840200"/></svg>