<svg xmlns="http://www.w3.org/2000/svg" viewBox="0 0 980 980"><g fill="#FFF"><path d="M861 981H121c-1.63-.28-3.25-.65-4.89-.83-52.88-5.85-88.81-33.94-107.97-83.26C4.47 887.44 3.32 876.99 1 867V114c.3-.92.75-1.83.87-2.78C8.42 59 46.4 16.56 97.46 4.77 105.18 2.98 113.15 2.23 121 1h740c1.63.28 3.25.65 4.89.83 52.94 5.78 88.79 33.96 107.96 83.26 3.68 9.47 4.83 19.92 7.15 29.91v753c-.31 1.09-.78 2.16-.91 3.27-5.74 49.06-42.51 91.96-90.24 104.63-9.41 2.5-19.23 3.44-28.85 5.1zm87.33-488.91c0-121.98-.43-243.97.24-365.95.23-42.06-39.78-92.44-92.57-92.34-243.46.45-486.93.4-730.4.04-53.39-.08-92.07 52.02-92.01 91.46.39 243.8.21 487.6.15 731.4 0 13.65 2.84 26.59 9.52 38.35 17.84 31.39 43.5 52.66 80.87 52.73 244.8.46 489.6.27 734.4.09 8.04-.01 16.32-1.39 24.09-3.55 35.49-9.87 66.06-43.98 65.89-88.76-.49-121.17-.18-242.32-.18-363.47z"/><path d="M532.88 449.12H714.08c20.13 0 31.06 8.42 36.09 28.06 3.72 14.54 2.12 28.47-5.9 41.32-5.99 9.6-14.54 14.48-26.2 14.45-59.5-.16-118.99-.07-178.49-.07h-6.69V713.92c0 20.34-8.48 31.37-28.41 36.3-15.85 3.92-30.8 1.79-44.08-8.21-7.67-5.77-11.32-13.55-11.3-23.31.1-59.66.05-119.33.05-178.99v-6.84h-181.4c-19.85 0-30.75-8.32-35.89-27.68-3.85-14.52-2.27-28.48 5.6-41.37 5.98-9.8 14.63-14.82 26.52-14.78 59.5.18 118.99.08 178.49.08h6.68v-6.07-175.49c0-19.63 8.25-30.49 27.34-35.64 14.13-3.82 27.78-2.49 40.56 4.81 10.49 5.99 15.97 14.83 15.93 27.37-.19 59.5-.08 118.99-.08 178.49-.02 1.96-.02 3.93-.02 6.53z"/></g></svg>